<?xml version="1.0" encoding="UTF-8" standalone="no"?><!DOCTYPE svg PUBLIC "-//W3C//DTD SVG 1.1//EN" "http://www.w3.org/Graphics/SVG/1.1/DTD/svg11.dtd"><svg width="100%" height="100%" viewBox="0 0 350 239" version="1.1" xmlns="http://www.w3.org/2000/svg" xmlns:xlink="http://www.w3.org/1999/xlink" xml:space="preserve" xmlns:serif="http://www.serif.com/" style="fill-rule:evenodd;clip-rule:evenodd;stroke-linejoin:round;stroke-miterlimit:2;"><rect id="Artboard1" x="0" y="0" width="349.616" height="238.7" style="fill:none;"/><g id="Artboard11" serif:id="Artboard1"><path d="M70.832,57.253c0.019,1.238 0.074,2.457 0.166,3.657c0.091,1.199 0.219,2.417 0.384,3.652c0.158,0.799 0.112,1.346 -0.138,1.641c-0.25,0.295 -0.812,0.486 -1.684,0.572c-1.09,0.163 -2.145,0.215 -3.165,0.158c-1.02,-0.057 -1.603,-0.084 -1.749,-0.082c-1.387,-0.269 -2.246,-0.474 -2.576,-0.615c-0.33,-0.14 -0.467,-0.794 -0.413,-1.96c-0.014,-0.946 -0.036,-2.365 -0.066,-4.258c-0.029,-1.893 -0.08,-4.003 -0.153,-6.332c-0.072,-2.329 -0.129,-4.786 -0.169,-7.37c-0.04,-2.584 -0.079,-5.077 -0.116,-7.48c-0.05,-3.203 -0.065,-6.534 -0.046,-9.993c0.019,-3.458 0.025,-6.626 0.017,-9.502c-0.009,-2.876 0.008,-5.315 0.05,-7.318c0.041,-2.003 0.059,-3.187 0.054,-3.551c-0.079,-0.363 -0.103,-0.744 -0.073,-1.145c0.031,-0.401 0.079,-0.784 0.146,-1.149c0.137,-0.585 0.295,-0.952 0.475,-1.1c0.18,-0.148 0.561,-0.227 1.143,-0.236c0.218,-0.004 0.637,0.008 1.257,0.035c0.619,0.027 1.293,0.053 2.021,0.078c0.729,0.025 1.458,0.068 2.187,0.13c0.729,0.061 1.312,0.088 1.748,0.082c0.73,0.061 1.173,0.455 1.329,1.18l0.019,1.202c-0.139,0.439 -0.186,0.894 -0.143,1.367c0.044,0.473 0.033,0.928 -0.033,1.366c-0.05,1.457 -0.046,2.877 0.012,4.259c0.057,1.383 0.025,2.803 -0.098,4.261c-0.131,0.949 -0.189,1.896 -0.174,2.843c0.014,0.946 -0.007,1.893 -0.066,2.84c-0.052,1.312 -0.068,2.641 -0.047,3.988c0.021,1.346 -0.031,2.676 -0.156,3.988l0.025,1.638c0.005,0.292 -0.007,0.692 -0.036,1.202c-0.028,0.51 -0.039,1.002 -0.032,1.475c0.008,0.473 -0.003,0.929 -0.033,1.366c-0.03,0.437 -0.044,0.692 -0.043,0.765c0.149,0.216 0.296,0.287 0.44,0.212c0.289,-0.15 0.542,-0.318 0.757,-0.503c0.216,-0.186 0.431,-0.389 0.646,-0.611c0.572,-0.664 1.163,-1.329 1.771,-1.994c0.609,-0.664 1.236,-1.293 1.882,-1.886c0.572,-0.664 1.038,-1.162 1.397,-1.496c0.359,-0.333 0.933,-0.87 1.722,-1.61c0.502,-0.518 1.149,-1.074 1.94,-1.669c0.431,-0.37 1.047,-0.598 1.846,-0.683c0.653,-0.156 1.489,-0.278 2.507,-0.367c1.018,-0.089 2.018,-0.159 3,-0.21c0.982,-0.052 1.874,-0.084 2.674,-0.097c0.801,-0.012 1.347,-0.02 1.638,-0.025c0.365,0.067 0.641,0.227 0.827,0.479c0.186,0.252 0.137,0.598 -0.148,1.04c-0.285,0.368 -0.697,0.811 -1.235,1.329c-0.538,0.518 -0.986,0.962 -1.345,1.332c-1.078,0.89 -1.886,1.595 -2.424,2.113c-0.538,0.518 -0.951,0.925 -1.237,1.22c-1.435,1.406 -2.601,2.534 -3.497,3.386c-0.897,0.851 -1.848,1.794 -2.851,2.829c-0.287,0.296 -0.354,0.661 -0.201,1.095c0.152,0.435 0.378,0.886 0.676,1.355c0.299,0.469 0.615,0.901 0.949,1.296c0.333,0.395 0.574,0.665 0.722,0.808c0.596,0.864 1.099,1.585 1.508,2.161c0.409,0.576 0.818,1.098 1.226,1.565c0.407,0.466 0.834,0.988 1.28,1.563c0.446,0.576 1.004,1.332 1.673,2.268c0.595,0.792 1.339,1.799 2.232,3.023c0.893,1.224 1.636,2.196 2.229,2.915c0.52,0.647 0.966,1.204 1.337,1.672c0.371,0.467 0.818,1.098 1.34,1.89c0.447,0.649 0.709,1.118 0.786,1.408c0.078,0.29 -0.318,0.624 -1.185,1.001c-0.436,0.08 -0.854,0.141 -1.254,0.184c-0.399,0.042 -0.818,0.067 -1.255,0.074c-0.726,0.084 -1.363,0.13 -1.909,0.139c-0.546,0.008 -1.073,0.016 -1.583,0.024c-0.51,0.008 -1.038,-0.02 -1.585,-0.084c-0.547,-0.065 -1.186,-0.164 -1.916,-0.298c-0.366,-0.14 -0.752,-0.353 -1.157,-0.638c-0.405,-0.285 -0.719,-0.607 -0.943,-0.968c-0.744,-1.008 -1.395,-1.908 -1.953,-2.7c-0.559,-0.792 -1.099,-1.567 -1.62,-2.323c-0.521,-0.757 -1.043,-1.549 -1.566,-2.379c-0.523,-0.829 -1.119,-1.748 -1.79,-2.757c-0.149,-0.216 -0.745,-1.081 -0.894,-1.297c-0.15,-0.289 -0.318,-0.559 -0.504,-0.811c-0.186,-0.252 -0.391,-0.522 -0.614,-0.81c-0.295,-0.286 -0.536,-0.556 -0.722,-0.808c-0.186,-0.252 -0.389,-0.412 -0.608,-0.482c-0.22,-0.069 -0.492,-0.047 -0.818,0.068c-0.326,0.114 -0.777,0.394 -1.352,0.84c-0.358,0.442 -0.608,0.756 -0.75,0.94c-0.143,0.184 -0.175,0.458 -0.097,0.82c0.013,0.801 0.025,1.602 0.037,2.403c0.013,0.8 0.062,1.601 0.147,2.4Z" style="fill:#fff;fill-rule:nonzero;"/><path d="M100.648,40.775c-0.006,-0.437 -0.037,-1.237 -0.091,-2.401c-0.055,-1.165 -0.093,-2.42 -0.114,-3.767c-0.02,-1.346 -0.058,-2.62 -0.113,-3.821c-0.056,-1.2 -0.088,-2.092 -0.097,-2.674l-0.005,-0.328c-0.011,-0.727 0.274,-1.132 0.855,-1.214c0.217,-0.076 0.508,-0.117 0.872,-0.123c0.073,-0.001 2.093,-0.032 2.784,-0.043c0.692,-0.011 1.42,-0.004 2.185,0.02c0.765,0.025 1.366,0.07 1.804,0.136c1.021,0.057 1.612,0.631 1.775,1.72c0.007,0.51 -0.023,0.911 -0.091,1.203c-0.261,1.97 -0.339,3.974 -0.234,6.011c-0.159,3.861 -0.074,7.009 0.256,9.443c0.329,2.434 0.759,4.375 1.291,5.823c0.532,1.448 1.113,2.513 1.743,3.195c0.629,0.682 1.202,1.201 1.717,1.557c1.324,0.854 2.784,1.086 4.379,0.697c1.161,-0.309 2.136,-0.798 2.927,-1.465c0.79,-0.668 1.543,-1.444 2.257,-2.329c0.214,-0.295 0.373,-0.607 0.477,-0.936c0.104,-0.329 0.226,-0.677 0.366,-1.043c0.343,-1.389 0.573,-2.994 0.69,-4.816c0.133,-0.803 0.194,-1.587 0.182,-2.351c-0.012,-0.765 0.012,-1.548 0.073,-2.35c-0.013,-0.801 -0.025,-1.601 -0.038,-2.402c-0.012,-0.801 0.012,-1.602 0.072,-2.404c-0.017,-1.092 -0.052,-2.184 -0.105,-3.275c-0.054,-1.091 -0.089,-2.183 -0.106,-3.275c-0.004,-0.291 -0.027,-0.564 -0.067,-0.818c-0.04,-0.254 -0.026,-0.527 0.042,-0.82c-0.013,-0.8 0.144,-1.294 0.468,-1.481c0.325,-0.188 0.705,-0.357 1.139,-0.51c0.871,-0.159 1.653,-0.226 2.345,-0.2c0.692,0.026 1.512,0.031 2.458,0.017c1.893,-0.03 3.077,0.061 3.554,0.272c0.476,0.211 0.724,0.899 0.742,2.064c-0.067,0.365 -0.105,1.476 -0.112,3.333c-0.008,1.856 -0.028,4.078 -0.061,6.663c-0.032,2.585 -0.062,5.371 -0.088,8.357c-0.027,2.985 -0.038,5.789 -0.034,8.41c0.005,2.621 -0.015,4.86 -0.059,6.718c-0.044,1.857 0.186,3.94 0.268,4.521c0.077,0.29 0.046,0.654 -0.092,1.093c-0.136,0.658 -0.458,1.027 -0.966,1.108c-1.015,0.307 -2.195,0.525 -3.54,0.655c-1.345,0.13 -2.93,0.027 -4.755,-0.308c-0.512,-0.138 -0.898,-0.35 -1.157,-0.638c-0.259,-0.287 -0.32,-0.65 -0.181,-1.089c0.203,-1.023 0.508,-1.457 0.427,-1.965c-0.01,-0.655 -0.304,-0.796 -0.88,-0.423c-1.155,0.673 -2.311,1.219 -3.47,1.637c-1.158,0.419 -2.354,0.783 -3.587,1.094c-0.799,0.158 -1.981,0.176 -3.549,0.055c-1.567,-0.122 -3.012,-0.536 -4.333,-1.244c-0.221,-0.142 -0.698,-0.389 -1.432,-0.742c-0.733,-0.353 -1.211,-0.637 -1.433,-0.852c-0.295,-0.286 -0.85,-0.805 -1.662,-1.557c-0.813,-0.752 -1.63,-1.832 -2.453,-3.239c-0.823,-1.407 -1.561,-3.179 -2.213,-5.317c-0.652,-2.138 -0.966,-4.809 -0.943,-8.013c-0.079,-0.363 -0.121,-0.726 -0.126,-1.09c-0.006,-0.364 -0.051,-3.276 -0.051,-3.276c-0.006,-0.364 0.024,-0.765 0.09,-1.203Z" style="fill:#fff;fill-rule:nonzero;"/><path d="M144.641,60.516c-0.086,-0.872 -0.136,-1.727 -0.149,-2.564c-0.013,-0.837 -0.29,-18.727 -0.297,-19.163c-0.007,-0.437 -0.004,-1.42 0.009,-2.949c0.012,-1.53 0.021,-3.314 0.026,-5.353c0.005,-2.038 0.007,-4.205 0.008,-6.498c0.001,-2.294 0.004,-4.442 0.009,-6.444c0.006,-2.003 -0.003,-3.732 -0.026,-5.188c-0.022,-1.456 -0.036,-2.366 -0.042,-2.73c-0.005,-0.291 -0.029,-0.709 -0.074,-1.254c-0.045,-0.546 -0.017,-1.092 0.084,-1.64c0.1,-0.548 0.257,-1.042 0.468,-1.482c0.212,-0.44 0.608,-0.737 1.188,-0.892c0.144,-0.075 0.58,-0.136 1.307,-0.184c0.728,-0.048 1.528,-0.097 2.401,-0.147c0.873,-0.049 1.655,-0.08 2.347,-0.091c0.691,-0.01 1.037,-0.016 1.037,-0.016c1.165,-0.018 1.755,0.446 1.769,1.393c0.164,1.162 0.254,2.289 0.271,3.381c0.017,1.092 0.068,4.368 0.075,4.805c0.007,0.437 0.05,0.909 0.131,1.418c0.012,0.8 0.108,6.988 0.136,8.735c0.027,1.747 0.034,3.403 0.022,4.969c-0.012,1.566 -0.013,2.64 -0.004,3.222c0.012,0.801 0.018,2.366 0.018,4.696c-0,2.33 0.02,4.824 0.061,7.481c0.042,2.657 0.098,5.132 0.17,7.424c0.072,2.293 0.114,3.803 0.125,4.531c0.007,0.436 0.017,1.055 0.029,1.856c0.012,0.801 0.007,1.638 -0.016,2.512c-0.022,0.874 -0.064,1.712 -0.124,2.514c-0.061,0.802 -0.16,1.423 -0.299,1.862c-0.21,0.585 -0.713,0.975 -1.511,1.17c-0.798,0.194 -1.688,0.299 -2.671,0.314c-0.983,0.016 -1.912,-0.025 -2.787,-0.12c-0.875,-0.096 -1.495,-0.177 -1.861,-0.244c-0.509,0.008 -0.894,-0.169 -1.155,-0.529c-0.26,-0.36 -0.394,-0.794 -0.402,-1.304c-0.082,-0.581 -0.145,-1.163 -0.191,-1.744c-0.045,-0.582 -0.073,-1.164 -0.082,-1.747Z" style="fill:#fff;fill-rule:nonzero;"/><path d="M165.013,17.237c0.063,-0.584 0.167,-0.931 0.311,-1.043c0.144,-0.111 0.47,-0.244 0.977,-0.397c0.58,-0.155 1.307,-0.257 2.18,-0.307c0.873,-0.05 1.709,-0.081 2.51,-0.093c0.801,-0.013 3.094,-0.049 3.167,-0.05c0.439,0.139 0.589,0.428 0.45,0.867c0.002,0.146 -0.046,0.565 -0.144,1.258c-0.099,0.694 -0.177,1.496 -0.236,2.407c-0.059,0.911 -0.117,1.84 -0.175,2.788c-0.058,0.947 -0.046,1.711 0.036,2.293c0.004,0.291 0.044,0.509 0.119,0.653c0.007,0.437 0.229,0.688 0.667,0.754c0.145,-0.002 0.801,0.006 1.966,0.024c1.166,0.019 2.44,0.017 3.823,-0.004c1.383,-0.022 5.751,-0.09 5.896,-0.092c0.219,-0.003 0.419,0.012 0.602,0.045c0.182,0.034 0.383,0.049 0.601,0.046c0.656,0.062 1.099,0.456 1.329,1.18c0.003,0.219 0.025,0.419 0.064,0.6c0.039,0.182 0.06,0.345 0.062,0.491c0.16,0.944 0.229,1.871 0.207,2.782c-0.022,0.91 -0.062,1.839 -0.12,2.787c0.009,0.582 -0.312,1.024 -0.963,1.325c-0.217,0.076 -0.944,0.124 -2.182,0.143c-1.237,0.019 -2.584,0.04 -4.04,0.063c-1.456,0.023 -2.803,0.025 -4.041,0.008c-1.238,-0.017 -1.93,-0.025 -2.076,-0.022c-1.019,0.015 -1.542,0.333 -1.568,0.952c-0.027,0.62 -0.074,1.112 -0.141,1.477c-0.121,1.604 -0.166,3.407 -0.135,5.408c0.031,2.002 0.06,3.84 0.086,5.515c0.022,1.456 0.26,2.69 0.713,3.702c0.452,1.012 0.789,1.626 1.011,1.841c1.036,1.076 2.098,1.478 3.186,1.207c1.088,-0.272 1.915,-0.922 2.482,-1.95c0.424,-0.808 0.7,-1.813 0.827,-3.017c0.127,-1.203 0.183,-2.278 0.168,-3.224c-0.005,-0.364 -0.029,-0.691 -0.07,-0.982c-0.041,-0.291 -0.064,-0.618 -0.069,-0.982c-0.013,-0.801 0.272,-1.242 0.853,-1.324c0.29,-0.077 0.835,-0.14 1.635,-0.189c0.8,-0.049 1.619,-0.098 2.455,-0.147c0.837,-0.05 1.583,-0.08 2.238,-0.09c0.655,-0.01 0.983,-0.015 0.983,-0.015c0.8,-0.012 1.243,0.381 1.329,1.181l0.035,2.293c-0.051,1.384 -0.121,2.75 -0.209,4.099c-0.089,1.348 -0.305,2.68 -0.648,3.996c-0.753,3.07 -2.243,5.642 -4.468,7.715c-0.861,0.814 -2.489,1.44 -4.885,1.878c-2.396,0.438 -5.058,0.17 -7.986,-0.804c-0.805,-0.279 -1.484,-0.651 -2.038,-1.116c-0.553,-0.464 -1.125,-0.983 -1.717,-1.557c-1.774,-1.72 -3.007,-3.776 -3.7,-6.168c-0.153,-0.507 -0.327,-1.141 -0.521,-1.903c-0.194,-0.761 -0.372,-1.705 -0.535,-2.831c-0.163,-1.126 -0.312,-2.489 -0.446,-4.089c-0.134,-1.6 -0.219,-3.564 -0.255,-5.894c0.007,-4.223 0.057,-8.047 0.149,-11.47c0.051,-1.457 0.083,-2.878 0.098,-4.261c0.015,-1.384 0.032,-2.64 0.051,-3.769c0.019,-1.129 0.041,-2.058 0.066,-2.786c0.025,-0.729 0.037,-1.129 0.036,-1.202Z" style="fill:#fff;fill-rule:nonzero;"/><path d="M197.92,40.437c-0.007,-0.436 -0.037,-1.237 -0.092,-2.401c-0.054,-1.164 -0.092,-2.42 -0.113,-3.766c-0.021,-1.347 -0.059,-2.621 -0.114,-3.821c-0.055,-1.201 -0.087,-2.092 -0.096,-2.675l-0.005,-0.327c-0.011,-0.728 0.274,-1.133 0.855,-1.215c0.217,-0.076 0.508,-0.117 0.872,-0.123c0.073,-0.001 2.093,-0.032 2.784,-0.043c0.692,-0.011 1.42,-0.004 2.185,0.021c0.765,0.024 1.366,0.07 1.804,0.136c1.02,0.057 1.612,0.63 1.774,1.72c0.008,0.509 -0.022,0.91 -0.09,1.202c-0.261,1.97 -0.339,3.974 -0.235,6.011c-0.158,3.862 -0.073,7.01 0.256,9.444c0.329,2.434 0.76,4.375 1.292,5.823c0.532,1.448 1.113,2.513 1.743,3.195c0.629,0.682 1.201,1.201 1.717,1.557c1.323,0.853 2.783,1.085 4.379,0.696c1.16,-0.309 2.136,-0.797 2.926,-1.465c0.791,-0.668 1.543,-1.444 2.258,-2.329c0.214,-0.294 0.373,-0.606 0.477,-0.935c0.104,-0.33 0.226,-0.677 0.366,-1.044c0.342,-1.388 0.572,-2.994 0.69,-4.816c0.133,-0.803 0.193,-1.587 0.181,-2.351c-0.011,-0.764 0.013,-1.548 0.073,-2.349c-0.012,-0.801 -0.025,-1.602 -0.037,-2.403c-0.012,-0.8 0.011,-1.602 0.072,-2.404c-0.017,-1.091 -0.052,-2.183 -0.106,-3.275c-0.053,-1.091 -0.088,-2.183 -0.105,-3.274c-0.005,-0.292 -0.027,-0.564 -0.067,-0.819c-0.041,-0.254 -0.027,-0.527 0.042,-0.819c-0.013,-0.801 0.143,-1.295 0.468,-1.482c0.325,-0.187 0.704,-0.357 1.139,-0.509c0.871,-0.159 1.653,-0.226 2.345,-0.2c0.692,0.025 1.511,0.031 2.458,0.016c1.892,-0.029 3.077,0.061 3.554,0.272c0.476,0.212 0.723,0.899 0.741,2.064c-0.067,0.365 -0.104,1.476 -0.112,3.333c-0.007,1.857 -0.027,4.078 -0.06,6.663c-0.033,2.586 -0.062,5.371 -0.089,8.357c-0.026,2.986 -0.037,5.789 -0.033,8.41c0.004,2.622 -0.016,4.861 -0.06,6.718c-0.043,1.858 0.046,3.876 -0.093,4.315c-0.135,0.657 -0.457,1.027 -0.966,1.107c-1.014,0.307 -2.194,0.526 -3.539,0.656c-1.345,0.13 -2.93,0.027 -4.756,-0.309c-0.512,-0.137 -0.897,-0.35 -1.157,-0.637c-0.259,-0.287 -0.319,-0.65 -0.18,-1.089c0.202,-1.023 0.392,-1.462 -0.185,-1.089c-1.154,0.673 -2.311,1.219 -3.469,1.638c-1.159,0.418 -2.354,0.783 -3.587,1.093c-0.799,0.158 -1.982,0.176 -3.549,0.055c-1.567,-0.121 -3.012,-0.536 -4.334,-1.243c-0.22,-0.142 -0.697,-0.39 -1.431,-0.743c-0.734,-0.352 -1.211,-0.636 -1.433,-0.851c-0.296,-0.287 -0.85,-0.806 -1.662,-1.558c-0.813,-0.752 -1.631,-1.831 -2.454,-3.238c-0.822,-1.408 -1.56,-3.18 -2.212,-5.318c-0.652,-2.138 -0.967,-4.809 -0.943,-8.013c-0.079,-0.363 -0.121,-0.726 -0.127,-1.09c-0.005,-0.364 -0.05,-3.276 -0.05,-3.276c-0.006,-0.364 0.024,-0.765 0.09,-1.203Z" style="fill:#fff;fill-rule:nonzero;"/><path d="M270.28,44.102c-0.8,0.085 -1.313,-0.143 -1.54,-0.686c-0.227,-0.543 -0.424,-1.504 -0.591,-2.885c-0.171,-1.672 -0.771,-2.81 -1.8,-3.413c-1.029,-0.603 -2.598,-0.815 -4.706,-0.636c-0.799,0.158 -1.56,0.388 -2.283,0.69c-0.724,0.303 -1.373,0.677 -1.949,1.123c-1.729,1.192 -2.906,2.739 -3.532,4.642c-0.275,1.023 -0.497,2.01 -0.664,2.959c-0.167,0.949 -0.243,1.933 -0.227,2.952c0.004,0.292 0.032,0.928 0.084,1.91c0.052,0.983 0.086,2.038 0.104,3.166c0.017,1.129 0.035,2.257 0.052,3.385c0.018,1.129 0.068,1.983 0.149,2.565c0.012,0.727 0.005,1.438 -0.021,2.13c-0.026,0.692 0.04,1.401 0.197,2.126c0.153,0.508 -0.023,0.874 -0.529,1.101c-0.289,0.15 -0.851,0.286 -1.687,0.408c-0.835,0.122 -1.689,0.227 -2.562,0.313c-0.872,0.086 -1.69,0.135 -2.455,0.147c-0.764,0.012 -1.256,-0.017 -1.476,-0.086c-1.096,-0.274 -1.653,-0.957 -1.67,-2.049c-0.014,-0.947 -0.011,-1.875 0.012,-2.785c0.022,-0.911 0.062,-1.84 0.12,-2.787c-0.001,-0.073 -0.365,-23.513 -0.407,-26.207c-0.041,-2.693 -0.04,-3.626 0.023,-4.21c0.064,-0.583 0.128,-1.167 0.192,-1.75c0.068,-0.292 0.243,-0.732 0.525,-1.319c0.212,-0.44 0.572,-0.701 1.08,-0.781c1.814,-0.392 3.451,-0.472 4.911,-0.24c1.46,0.232 2.263,0.347 2.409,0.345c0.512,0.21 0.809,0.533 0.888,0.969c0.004,0.218 0.011,0.673 0.021,1.365c0.011,0.691 -0.059,1.826 -0.05,2.408c0.006,0.437 0.226,0.506 0.658,0.208c0.432,-0.298 0.72,-0.557 0.862,-0.778c1.58,-1.408 3.405,-2.273 5.475,-2.597c2.07,-0.323 3.615,-0.493 4.634,-0.509c1.528,-0.096 2.95,0.1 4.269,0.589c1.318,0.49 2.603,1.198 3.855,2.125c0.59,0.428 1.034,0.949 1.335,1.563c0.301,0.614 0.638,1.21 1.011,1.786c0.453,1.013 0.796,2.045 1.031,3.097c0.235,1.052 0.433,2.087 0.594,3.104c0.159,0.871 0.191,1.744 0.096,2.619c-0.096,0.876 -0.21,1.751 -0.342,2.627c-0.063,0.656 -0.421,1.026 -1.075,1.109c-0.218,0.003 -0.582,0.027 -1.091,0.071c-0.509,0.045 -1.018,0.071 -1.528,0.079c-0.509,0.008 -2.256,0.035 -2.402,0.037Z" style="fill:#fff;fill-rule:nonzero;"/><path d="M30.551,99.938c-0.437,-0.001 -0.764,-0.221 -0.982,-0.658c-0.144,-0.292 -0.271,-0.583 -0.38,-0.875c-0.108,-0.291 -0.235,-0.583 -0.38,-0.874c-0.287,-1.384 -0.867,-2.332 -1.74,-2.844c-0.872,-0.512 -1.417,-0.768 -1.636,-0.769c-0.582,-0.074 -1.146,-0.112 -1.692,-0.113c-0.546,-0.002 -1.111,0.07 -1.693,0.214c-0.947,0.216 -1.695,0.56 -2.242,1.032c-0.547,0.472 -0.93,0.962 -1.15,1.471c-0.22,0.509 -0.349,1 -0.386,1.473c-0.038,0.473 -0.02,0.783 0.052,0.929c0.362,1.02 0.833,1.822 1.414,2.406c0.581,0.584 1.453,1.205 2.616,1.863c1.817,1.024 3.635,2.03 5.453,3.017c1.817,0.987 3.489,2.084 5.015,3.289c1.525,1.205 2.832,2.573 3.921,4.105c1.088,1.532 1.811,3.39 2.17,5.575c0.142,1.238 0.176,2.367 0.1,3.386c-0.075,1.019 -0.223,1.91 -0.443,2.674c-0.221,0.764 -0.441,1.401 -0.66,1.91c-0.22,0.509 -0.367,0.836 -0.44,0.981c-1.242,1.745 -2.465,3.088 -3.668,4.032c-1.204,0.943 -2.407,1.65 -3.61,2.12c-1.202,0.47 -2.386,0.777 -3.551,0.919c-1.165,0.143 -2.294,0.249 -3.386,0.319c-1.675,0.069 -3.349,0.01 -5.023,-0.176c-1.674,-0.187 -3.093,-0.682 -4.256,-1.485c-1.744,-1.242 -3.051,-2.702 -3.92,-4.379c-0.869,-1.676 -1.447,-3.571 -1.733,-5.683c-0.144,-0.655 -0.197,-1.183 -0.16,-1.584c0.038,-0.4 0.057,-0.928 0.059,-1.583c0.001,-0.51 0.294,-0.927 0.877,-1.254c0.583,-0.326 1.275,-0.542 2.076,-0.65c0.802,-0.107 1.657,-0.123 2.567,-0.048c0.91,0.076 1.656,0.187 2.238,0.334c0.727,0.22 1.126,0.694 1.197,1.422c-0.002,1.02 0.159,2.039 0.484,3.059c0.325,1.02 0.814,1.859 1.468,2.516c0.581,0.584 1.472,0.877 2.673,0.88c1.202,0.003 2.203,-0.103 3.004,-0.32c2.04,-0.577 3.39,-1.575 4.048,-2.993c0.659,-1.418 0.881,-2.564 0.664,-3.438c-0.576,-2.331 -1.846,-4.009 -3.809,-5.033c-0.291,-0.146 -0.909,-0.494 -1.854,-1.042c-0.945,-0.549 -1.963,-1.152 -3.053,-1.81c-1.09,-0.658 -2.144,-1.298 -3.162,-1.919c-1.018,-0.621 -1.672,-1.078 -1.962,-1.37c-1.162,-1.095 -2.288,-2.226 -3.377,-3.394c-1.234,-1.459 -2.122,-3.009 -2.664,-4.648c-0.542,-1.639 -0.737,-3.405 -0.587,-5.298c0.37,-2.329 1.249,-4.31 2.636,-5.945c1.387,-1.635 2.919,-2.741 4.595,-3.319c0.437,-0.145 1.184,-0.288 2.24,-0.431c1.056,-0.143 2.148,-0.25 3.277,-0.32c1.129,-0.07 2.184,-0.103 3.167,-0.101c0.983,0.003 1.693,0.077 2.129,0.224c1.965,0.151 3.584,0.646 4.856,1.487c1.272,0.84 2.289,1.771 3.051,2.792c0.762,1.021 1.305,2.06 1.63,3.117c0.325,1.056 0.559,1.912 0.703,2.568l0.321,2.622c0.071,0.582 -0.148,0.946 -0.658,1.09c-0.364,0.145 -0.874,0.234 -1.529,0.269c-0.656,0.035 -1.311,0.088 -1.967,0.159c-0.655,0.071 -1.274,0.106 -1.856,0.104c-0.583,-0.001 -0.947,-0.002 -1.092,-0.002Z" style="fill:#fff;fill-rule:nonzero;"/><path d="M137.232,125.917c-0.003,1.237 0.03,2.457 0.1,3.658c0.07,1.202 0.176,2.421 0.318,3.659c0.144,0.802 0.088,1.348 -0.168,1.638c-0.255,0.291 -0.82,0.471 -1.694,0.542c-1.092,0.143 -2.148,0.176 -3.167,0.101c-1.019,-0.075 -1.601,-0.113 -1.747,-0.114c-1.383,-0.294 -2.237,-0.515 -2.565,-0.661c-0.327,-0.147 -0.453,-0.802 -0.377,-1.967c0.003,-0.947 0.006,-2.366 0.011,-4.259c0.005,-1.893 -0.008,-4.004 -0.039,-6.334c-0.03,-2.33 -0.042,-4.787 -0.035,-7.372c0.006,-2.584 0.012,-5.078 0.019,-7.48c0.008,-3.204 0.053,-6.534 0.134,-9.992c0.082,-3.458 0.144,-6.625 0.188,-9.501c0.044,-2.875 0.105,-5.314 0.182,-7.316c0.078,-2.002 0.118,-3.185 0.119,-3.549c-0.072,-0.364 -0.089,-0.746 -0.052,-1.147c0.037,-0.4 0.093,-0.782 0.167,-1.146c0.147,-0.582 0.311,-0.946 0.494,-1.091c0.182,-0.145 0.565,-0.217 1.147,-0.215c0.218,0 0.637,0.02 1.256,0.058c0.619,0.037 1.292,0.076 2.02,0.114c0.728,0.038 1.456,0.095 2.184,0.169c0.727,0.075 1.31,0.113 1.747,0.114c0.727,0.074 1.163,0.476 1.307,1.204l-0.003,1.202c-0.147,0.436 -0.203,0.891 -0.167,1.364c0.035,0.474 0.015,0.929 -0.058,1.365c-0.077,1.456 -0.099,2.876 -0.066,4.259c0.033,1.383 -0.025,2.803 -0.174,4.259c-0.148,0.946 -0.224,1.892 -0.226,2.839c-0.003,0.946 -0.041,1.892 -0.117,2.839c-0.076,1.31 -0.115,2.638 -0.119,3.985c-0.003,1.347 -0.079,2.676 -0.228,3.986l-0.005,1.638c-0,0.291 -0.019,0.691 -0.057,1.201c-0.038,0.509 -0.057,1.001 -0.059,1.474c-0.001,0.473 -0.02,0.928 -0.058,1.365c-0.037,0.437 -0.056,0.692 -0.056,0.764c0.145,0.219 0.29,0.292 0.436,0.22c0.292,-0.145 0.547,-0.308 0.766,-0.49c0.219,-0.181 0.438,-0.381 0.657,-0.599c0.584,-0.653 1.186,-1.307 1.806,-1.961c0.621,-0.653 1.26,-1.271 1.916,-1.851c0.584,-0.654 1.059,-1.144 1.424,-1.471c0.365,-0.327 0.948,-0.853 1.751,-1.579c0.511,-0.508 1.168,-1.053 1.97,-1.633c0.438,-0.363 1.057,-0.58 1.858,-0.651c0.656,-0.144 1.493,-0.251 2.513,-0.321c1.019,-0.07 2.02,-0.122 3.003,-0.156c0.983,-0.034 1.875,-0.05 2.676,-0.048c0.801,0.002 1.347,0.003 1.638,0.004c0.364,0.074 0.636,0.238 0.818,0.494c0.181,0.255 0.126,0.601 -0.167,1.037c-0.292,0.363 -0.712,0.799 -1.259,1.307c-0.547,0.508 -1.003,0.944 -1.368,1.307c-1.095,0.871 -1.915,1.56 -2.463,2.069c-0.547,0.508 -0.967,0.907 -1.259,1.198c-1.459,1.379 -2.645,2.487 -3.557,3.322c-0.912,0.834 -1.879,1.76 -2.901,2.777c-0.292,0.29 -0.366,0.654 -0.222,1.091c0.145,0.438 0.362,0.893 0.652,1.367c0.29,0.474 0.599,0.912 0.925,1.313c0.327,0.401 0.563,0.675 0.708,0.821c0.58,0.875 1.07,1.604 1.469,2.188c0.399,0.583 0.798,1.112 1.197,1.586c0.399,0.474 0.816,1.003 1.252,1.587c0.435,0.583 0.979,1.349 1.632,2.297c0.58,0.803 1.306,1.824 2.176,3.064c0.871,1.24 1.596,2.224 2.177,2.954c0.508,0.656 0.943,1.222 1.306,1.696c0.363,0.474 0.798,1.112 1.306,1.914c0.435,0.657 0.689,1.13 0.761,1.422c0.072,0.291 -0.33,0.618 -1.204,0.98c-0.437,0.071 -0.856,0.125 -1.256,0.16c-0.401,0.036 -0.82,0.053 -1.256,0.052c-0.729,0.071 -1.366,0.105 -1.912,0.104c-0.546,-0.001 -1.074,-0.003 -1.583,-0.004c-0.51,-0.001 -1.038,-0.039 -1.584,-0.113c-0.545,-0.074 -1.182,-0.185 -1.91,-0.333c-0.363,-0.146 -0.745,-0.366 -1.145,-0.658c-0.399,-0.292 -0.708,-0.621 -0.926,-0.985c-0.725,-1.021 -1.36,-1.933 -1.904,-2.735c-0.544,-0.802 -1.07,-1.586 -1.577,-2.352c-0.508,-0.766 -1.015,-1.568 -1.523,-2.406c-0.507,-0.839 -1.088,-1.769 -1.74,-2.79c-0.145,-0.218 -0.725,-1.094 -0.871,-1.312c-0.144,-0.292 -0.307,-0.565 -0.489,-0.821c-0.181,-0.255 -0.381,-0.528 -0.598,-0.82c-0.291,-0.292 -0.527,-0.566 -0.708,-0.821c-0.182,-0.255 -0.381,-0.42 -0.6,-0.493c-0.218,-0.073 -0.491,-0.056 -0.819,0.053c-0.328,0.108 -0.783,0.38 -1.367,0.815c-0.365,0.436 -0.621,0.745 -0.767,0.926c-0.146,0.182 -0.183,0.455 -0.111,0.819c-0.002,0.801 -0.004,1.602 -0.006,2.403c-0.002,0.801 0.032,1.602 0.103,2.403Z" style="fill:#fff;fill-rule:nonzero;"/><path d="M167.261,87.395c0.074,-0.582 0.184,-0.928 0.33,-1.037c0.146,-0.109 0.474,-0.235 0.984,-0.38c0.583,-0.144 1.311,-0.233 2.185,-0.267c0.874,-0.034 1.711,-0.05 2.512,-0.048c0.801,0.002 3.094,0.008 3.167,0.008c0.436,0.146 0.581,0.438 0.434,0.875c-0,0.145 -0.056,0.564 -0.167,1.255c-0.111,0.691 -0.204,1.492 -0.279,2.402c-0.075,0.91 -0.15,1.838 -0.225,2.784c-0.075,0.946 -0.077,1.711 -0.006,2.293c-0.001,0.291 0.035,0.51 0.107,0.656c-0.001,0.437 0.217,0.692 0.654,0.766c0.145,0 0.801,0.02 1.965,0.059c1.165,0.04 2.439,0.061 3.822,0.065c1.384,0.003 5.752,0.014 5.897,0.015c0.219,0 0.419,0.019 0.601,0.056c0.182,0.037 0.382,0.055 0.6,0.056c0.655,0.074 1.091,0.476 1.308,1.205c-0.001,0.218 0.017,0.418 0.053,0.6c0.036,0.182 0.054,0.346 0.053,0.492c0.143,0.947 0.196,1.875 0.157,2.785c-0.039,0.91 -0.096,1.838 -0.171,2.784c-0.001,0.583 -0.33,1.019 -0.986,1.308c-0.219,0.073 -0.947,0.107 -2.184,0.104c-1.238,-0.003 -2.585,-0.007 -4.041,-0.01c-1.456,-0.004 -2.803,-0.026 -4.041,-0.065c-1.237,-0.04 -1.929,-0.06 -2.074,-0.06c-1.02,-0.003 -1.548,0.306 -1.586,0.924c-0.038,0.619 -0.094,1.11 -0.168,1.474c-0.149,1.601 -0.227,3.403 -0.232,5.405c-0.005,2.002 -0.01,3.841 -0.014,5.515c-0.003,1.456 0.212,2.694 0.646,3.715c0.434,1.02 0.76,1.64 0.978,1.859c1.017,1.094 2.071,1.516 3.164,1.264c1.093,-0.252 1.931,-0.887 2.516,-1.905c0.439,-0.8 0.733,-1.8 0.882,-3.001c0.148,-1.201 0.224,-2.275 0.226,-3.221c0.001,-0.364 -0.016,-0.692 -0.052,-0.983c-0.035,-0.291 -0.053,-0.619 -0.052,-0.983c0.002,-0.801 0.294,-1.237 0.877,-1.308c0.292,-0.072 0.838,-0.125 1.639,-0.16c0.801,-0.034 1.62,-0.069 2.457,-0.103c0.837,-0.034 1.584,-0.05 2.239,-0.049c0.655,0.002 0.983,0.003 0.983,0.003c0.801,0.002 1.236,0.403 1.307,1.204l-0.006,2.294c-0.076,1.383 -0.17,2.748 -0.283,4.094c-0.113,1.347 -0.353,2.675 -0.72,3.984c-0.809,3.056 -2.344,5.6 -4.606,7.633c-0.876,0.799 -2.515,1.395 -4.919,1.79c-2.403,0.394 -5.06,0.078 -7.97,-0.949c-0.8,-0.293 -1.472,-0.677 -2.017,-1.152c-0.545,-0.474 -1.108,-1.004 -1.689,-1.588c-1.742,-1.751 -2.938,-3.829 -3.588,-6.233c-0.144,-0.51 -0.306,-1.148 -0.486,-1.913c-0.18,-0.765 -0.342,-1.712 -0.484,-2.84c-0.143,-1.129 -0.267,-2.495 -0.372,-4.097c-0.105,-1.601 -0.155,-3.567 -0.149,-5.897c0.083,-4.222 0.202,-8.044 0.357,-11.466c0.076,-1.456 0.134,-2.875 0.174,-4.258c0.04,-1.384 0.08,-2.639 0.119,-3.768c0.039,-1.128 0.078,-2.056 0.116,-2.784c0.039,-0.728 0.058,-1.128 0.058,-1.201Z" style="fill:#fff;fill-rule:nonzero;"/><path d="M256.97,126.088c-0.003,1.237 0.03,2.457 0.1,3.658c0.07,1.202 0.176,2.421 0.318,3.659c0.144,0.802 0.088,1.348 -0.168,1.638c-0.255,0.291 -0.82,0.471 -1.694,0.542c-1.092,0.143 -2.148,0.176 -3.167,0.101c-1.019,-0.075 -1.601,-0.113 -1.747,-0.114c-1.383,-0.294 -2.237,-0.515 -2.565,-0.661c-0.327,-0.147 -0.453,-0.802 -0.377,-1.967c0.003,-0.947 0.006,-2.366 0.011,-4.259c0.005,-1.893 -0.008,-4.004 -0.039,-6.334c-0.03,-2.33 -0.042,-4.787 -0.035,-7.372c0.006,-2.584 0.012,-5.078 0.018,-7.48c0.009,-3.204 0.053,-6.534 0.135,-9.992c0.082,-3.458 0.144,-6.625 0.188,-9.501c0.044,-2.875 0.105,-5.314 0.182,-7.316c0.078,-2.002 0.118,-3.185 0.119,-3.549c-0.072,-0.364 -0.09,-0.746 -0.052,-1.147c0.037,-0.4 0.093,-0.782 0.167,-1.146c0.147,-0.582 0.311,-0.946 0.494,-1.091c0.182,-0.145 0.565,-0.217 1.147,-0.215c0.218,0 0.637,0.02 1.256,0.057c0.619,0.038 1.292,0.077 2.02,0.115c0.728,0.038 1.456,0.095 2.183,0.169c0.728,0.075 1.311,0.113 1.747,0.114c0.728,0.074 1.164,0.476 1.308,1.204l-0.003,1.202c-0.147,0.436 -0.203,0.891 -0.167,1.364c0.035,0.474 0.015,0.929 -0.058,1.365c-0.077,1.456 -0.099,2.876 -0.066,4.259c0.033,1.383 -0.025,2.803 -0.175,4.259c-0.148,0.946 -0.223,1.892 -0.225,2.838c-0.003,0.947 -0.041,1.893 -0.117,2.84c-0.076,1.31 -0.115,2.638 -0.119,3.985c-0.003,1.347 -0.079,2.676 -0.228,3.986l-0.005,1.638c-0,0.291 -0.02,0.691 -0.057,1.201c-0.038,0.509 -0.057,1.001 -0.059,1.474c-0.001,0.473 -0.02,0.928 -0.058,1.365c-0.037,0.437 -0.056,0.691 -0.056,0.764c0.145,0.219 0.29,0.292 0.436,0.22c0.292,-0.145 0.547,-0.308 0.766,-0.49c0.219,-0.181 0.438,-0.381 0.657,-0.599c0.584,-0.653 1.186,-1.307 1.806,-1.961c0.621,-0.653 1.26,-1.271 1.916,-1.851c0.584,-0.654 1.059,-1.144 1.424,-1.471c0.364,-0.327 0.948,-0.853 1.751,-1.579c0.511,-0.508 1.167,-1.053 1.97,-1.633c0.438,-0.363 1.057,-0.58 1.858,-0.651c0.656,-0.144 1.493,-0.251 2.513,-0.321c1.019,-0.07 2.02,-0.122 3.003,-0.156c0.983,-0.034 1.875,-0.05 2.676,-0.048c0.801,0.002 1.347,0.003 1.638,0.004c0.364,0.074 0.636,0.238 0.818,0.494c0.181,0.255 0.126,0.601 -0.167,1.037c-0.292,0.363 -0.712,0.799 -1.259,1.307c-0.547,0.508 -1.003,0.944 -1.368,1.307c-1.095,0.871 -1.915,1.56 -2.463,2.069c-0.547,0.508 -0.967,0.907 -1.259,1.198c-1.459,1.379 -2.645,2.487 -3.557,3.322c-0.913,0.834 -1.88,1.76 -2.901,2.777c-0.292,0.29 -0.366,0.654 -0.222,1.091c0.145,0.438 0.362,0.893 0.652,1.367c0.29,0.474 0.599,0.912 0.925,1.313c0.327,0.401 0.563,0.675 0.708,0.821c0.58,0.875 1.07,1.604 1.469,2.188c0.399,0.583 0.798,1.112 1.197,1.586c0.399,0.474 0.816,1.003 1.252,1.587c0.435,0.583 0.979,1.349 1.632,2.297c0.58,0.803 1.306,1.824 2.176,3.064c0.871,1.24 1.596,2.224 2.177,2.954c0.508,0.656 0.943,1.222 1.306,1.696c0.363,0.474 0.798,1.112 1.306,1.914c0.435,0.656 0.688,1.13 0.761,1.422c0.072,0.291 -0.33,0.618 -1.204,0.98c-0.437,0.071 -0.856,0.125 -1.256,0.16c-0.401,0.036 -0.82,0.053 -1.256,0.052c-0.729,0.071 -1.366,0.105 -1.912,0.104c-0.546,-0.001 -1.074,-0.003 -1.583,-0.004c-0.51,-0.001 -1.038,-0.039 -1.584,-0.113c-0.545,-0.074 -1.182,-0.185 -1.91,-0.333c-0.363,-0.146 -0.745,-0.366 -1.145,-0.658c-0.399,-0.292 -0.708,-0.621 -0.926,-0.985c-0.725,-1.021 -1.36,-1.933 -1.904,-2.735c-0.544,-0.802 -1.07,-1.586 -1.577,-2.352c-0.508,-0.766 -1.016,-1.568 -1.523,-2.406c-0.508,-0.839 -1.088,-1.769 -1.74,-2.79c-0.145,-0.218 -0.725,-1.094 -0.871,-1.312c-0.144,-0.292 -0.308,-0.565 -0.489,-0.821c-0.181,-0.255 -0.381,-0.528 -0.598,-0.82c-0.291,-0.292 -0.527,-0.566 -0.708,-0.821c-0.182,-0.255 -0.381,-0.42 -0.6,-0.493c-0.218,-0.073 -0.491,-0.056 -0.819,0.053c-0.328,0.108 -0.783,0.38 -1.367,0.815c-0.365,0.436 -0.621,0.745 -0.767,0.926c-0.146,0.182 -0.183,0.455 -0.111,0.819c-0.002,0.801 -0.004,1.602 -0.006,2.403c-0.002,0.801 0.032,1.602 0.103,2.403Z" style="fill:#fff;fill-rule:nonzero;"/><path d="M328.585,130.032c-0.07,-0.874 -0.104,-1.73 -0.102,-2.567c0.002,-0.837 0.047,-18.729 0.048,-19.166c0.001,-0.436 0.022,-1.419 0.062,-2.948c0.041,-1.529 0.082,-3.312 0.123,-5.351c0.042,-2.038 0.084,-4.204 0.126,-6.497c0.042,-2.294 0.084,-4.441 0.126,-6.443c0.041,-2.002 0.064,-3.731 0.067,-5.187c0.004,-1.456 0.006,-2.366 0.007,-2.73c0.001,-0.292 -0.016,-0.71 -0.051,-1.256c-0.035,-0.547 0.003,-1.092 0.113,-1.638c0.111,-0.546 0.276,-1.037 0.495,-1.473c0.22,-0.436 0.621,-0.727 1.204,-0.871c0.146,-0.072 0.583,-0.126 1.311,-0.16c0.728,-0.035 1.529,-0.069 2.403,-0.103c0.873,-0.035 1.656,-0.051 2.348,-0.049c0.691,0.002 1.037,0.003 1.037,0.003c1.165,0.003 1.746,0.477 1.744,1.424c0.142,1.165 0.212,2.294 0.21,3.386c-0.003,1.092 -0.012,4.368 -0.013,4.805c-0.001,0.436 0.034,0.91 0.106,1.42c-0.002,0.8 -0.018,6.989 -0.022,8.736c-0.005,1.747 -0.027,3.404 -0.067,4.969c-0.041,1.565 -0.062,2.639 -0.063,3.221c-0.002,0.801 -0.024,2.366 -0.067,4.696c-0.042,2.329 -0.067,4.823 -0.073,7.48c-0.007,2.658 0.005,5.133 0.035,7.426c0.031,2.294 0.045,3.805 0.043,4.533c-0.001,0.436 -0.002,1.055 -0.004,1.856c-0.002,0.801 -0.023,1.638 -0.061,2.512c-0.039,0.873 -0.096,1.71 -0.17,2.511c-0.075,0.801 -0.186,1.419 -0.333,1.856c-0.22,0.582 -0.73,0.962 -1.532,1.142c-0.801,0.18 -1.693,0.269 -2.676,0.267c-0.983,-0.003 -1.911,-0.06 -2.784,-0.171c-0.873,-0.112 -1.492,-0.204 -1.856,-0.278c-0.51,-0.001 -0.891,-0.184 -1.145,-0.549c-0.254,-0.365 -0.38,-0.802 -0.379,-1.311c-0.071,-0.583 -0.124,-1.166 -0.159,-1.748c-0.035,-0.583 -0.052,-1.165 -0.051,-1.747Z" style="fill:#fff;fill-rule:nonzero;"/><path d="M124.934,170.199c0.013,-0.437 0.018,-1.238 0.015,-2.403c-0.003,-1.166 0.016,-2.421 0.055,-3.768c0.039,-1.346 0.058,-2.62 0.056,-3.822c-0.002,-1.202 0.006,-2.094 0.023,-2.676l0.01,-0.327c0.021,-0.728 0.323,-1.12 0.908,-1.176c0.22,-0.066 0.512,-0.094 0.876,-0.084c0.073,0.002 2.092,0.061 2.784,0.081c0.691,0.02 1.418,0.06 2.181,0.118c0.763,0.059 1.362,0.131 1.797,0.216c1.016,0.102 1.582,0.702 1.696,1.797c-0.015,0.51 -0.063,0.909 -0.144,1.198c-0.349,1.956 -0.516,3.954 -0.502,5.994c-0.33,3.851 -0.385,6.999 -0.165,9.446c0.22,2.446 0.564,4.404 1.031,5.875c0.467,1.47 1,2.56 1.599,3.269c0.598,0.709 1.147,1.253 1.646,1.632c1.284,0.911 2.732,1.208 4.344,0.891c1.173,-0.258 2.169,-0.702 2.988,-1.334c0.82,-0.632 1.606,-1.373 2.359,-2.226c0.227,-0.284 0.4,-0.589 0.518,-0.913c0.119,-0.325 0.257,-0.667 0.413,-1.026c0.404,-1.372 0.705,-2.966 0.903,-4.781c0.169,-0.796 0.264,-1.577 0.287,-2.341c0.022,-0.764 0.081,-1.545 0.177,-2.343c0.023,-0.801 0.046,-1.601 0.07,-2.402c0.023,-0.8 0.082,-1.6 0.178,-2.398c0.032,-1.092 0.046,-2.184 0.041,-3.277c-0.005,-1.092 0.009,-2.184 0.04,-3.276c0.009,-0.291 -0.001,-0.565 -0.03,-0.82c-0.029,-0.256 -0.003,-0.528 0.078,-0.817c0.023,-0.801 0.201,-1.287 0.534,-1.46c0.333,-0.172 0.719,-0.325 1.16,-0.458c0.878,-0.12 1.662,-0.152 2.352,-0.095c0.69,0.056 1.508,0.098 2.455,0.125c1.892,0.055 3.071,0.199 3.538,0.431c0.466,0.232 0.683,0.93 0.649,2.095c-0.083,0.361 -0.17,1.47 -0.26,3.324c-0.091,1.855 -0.21,4.073 -0.357,6.654c-0.148,2.582 -0.302,5.363 -0.461,8.345c-0.159,2.981 -0.295,5.781 -0.408,8.4c-0.112,2.619 -0.232,4.855 -0.358,6.709c-0.127,1.853 -0.108,3.164 -0.052,3.749c0.064,0.293 0.017,0.656 -0.141,1.088c-0.164,0.651 -0.502,1.005 -1.014,1.063c-1.027,0.262 -2.216,0.427 -3.565,0.498c-1.349,0.07 -2.929,-0.104 -4.737,-0.52c-0.506,-0.161 -0.881,-0.39 -1.128,-0.689c-0.246,-0.298 -0.29,-0.663 -0.132,-1.096c0.248,-1.012 0.365,-1.974 -0.228,-1.627c-1.183,0.622 -2.363,1.115 -3.539,1.482c-1.176,0.366 -2.387,0.677 -3.632,0.932c-0.805,0.123 -1.988,0.088 -3.548,-0.103c-1.561,-0.191 -2.985,-0.669 -4.274,-1.435c-0.214,-0.152 -0.68,-0.42 -1.397,-0.805c-0.717,-0.385 -1.182,-0.69 -1.394,-0.914c-0.282,-0.3 -0.813,-0.843 -1.591,-1.631c-0.778,-0.787 -1.547,-1.902 -2.307,-3.344c-0.759,-1.443 -1.417,-3.246 -1.973,-5.411c-0.556,-2.165 -0.751,-4.847 -0.586,-8.047c-0.062,-0.366 -0.088,-0.731 -0.077,-1.095c0.01,-0.364 0.095,-3.274 0.095,-3.274c0.01,-0.364 0.058,-0.764 0.144,-1.198Z" style="fill:#fff;fill-rule:nonzero;"/><path d="M170.181,151.087c0.089,-0.58 0.209,-0.923 0.357,-1.028c0.149,-0.104 0.48,-0.222 0.994,-0.353c0.586,-0.129 1.317,-0.199 2.191,-0.21c0.874,-0.011 1.712,-0.005 2.512,0.019c0.801,0.023 3.093,0.089 3.166,0.092c0.432,0.158 0.569,0.453 0.411,0.886c-0.004,0.145 -0.071,0.562 -0.2,1.25c-0.129,0.688 -0.243,1.486 -0.343,2.394c-0.099,0.907 -0.198,1.833 -0.299,2.777c-0.1,0.944 -0.122,1.708 -0.066,2.292c-0.009,0.291 0.021,0.511 0.09,0.658c-0.013,0.437 0.198,0.698 0.633,0.784c0.145,0.004 0.8,0.041 1.963,0.111c1.163,0.07 2.436,0.125 3.819,0.166c1.383,0.04 5.749,0.166 5.895,0.171c0.218,0.006 0.418,0.03 0.598,0.072c0.181,0.041 0.381,0.065 0.599,0.072c0.653,0.091 1.078,0.504 1.275,1.238c-0.006,0.219 0.006,0.419 0.037,0.602c0.032,0.183 0.045,0.348 0.041,0.493c0.118,0.951 0.146,1.88 0.083,2.789c-0.063,0.908 -0.145,1.834 -0.245,2.778c-0.017,0.583 -0.357,1.01 -1.02,1.282c-0.221,0.066 -0.949,0.082 -2.187,0.046c-1.237,-0.036 -2.583,-0.075 -4.039,-0.118c-1.455,-0.042 -2.801,-0.099 -4.037,-0.171c-1.236,-0.073 -1.927,-0.111 -2.072,-0.115c-1.019,-0.03 -1.556,0.264 -1.61,0.882c-0.054,0.617 -0.123,1.107 -0.207,1.469c-0.192,1.596 -0.317,3.395 -0.375,5.397c-0.058,2.001 -0.111,3.838 -0.16,5.512c-0.042,1.456 0.14,2.699 0.548,3.731c0.407,1.031 0.716,1.659 0.928,1.884c0.987,1.121 2.03,1.57 3.129,1.347c1.099,-0.223 1.955,-0.835 2.566,-1.837c0.46,-0.788 0.78,-1.78 0.961,-2.977c0.18,-1.196 0.284,-2.268 0.312,-3.214c0.01,-0.364 0.002,-0.692 -0.026,-0.984c-0.028,-0.292 -0.037,-0.62 -0.026,-0.984c0.023,-0.8 0.327,-1.228 0.911,-1.284c0.293,-0.065 0.84,-0.103 1.642,-0.117c0.802,-0.013 1.621,-0.025 2.459,-0.037c0.838,-0.013 1.585,-0.009 2.24,0.01c0.655,0.019 0.982,0.028 0.982,0.028c0.801,0.024 1.226,0.437 1.275,1.239l-0.066,2.293c-0.113,1.38 -0.244,2.742 -0.392,4.085c-0.148,1.343 -0.423,2.665 -0.825,3.964c-0.89,3.033 -2.492,5.536 -4.807,7.508c-0.896,0.775 -2.551,1.328 -4.964,1.659c-2.413,0.33 -5.061,-0.056 -7.942,-1.16c-0.792,-0.314 -1.454,-0.715 -1.986,-1.204c-0.532,-0.489 -1.081,-1.033 -1.646,-1.632c-1.696,-1.797 -2.837,-3.906 -3.422,-6.327c-0.131,-0.514 -0.276,-1.155 -0.436,-1.924c-0.159,-0.77 -0.296,-1.721 -0.409,-2.853c-0.112,-1.132 -0.2,-2.5 -0.263,-4.104c-0.063,-1.605 -0.06,-3.571 0.008,-5.9c0.195,-4.219 0.415,-8.036 0.66,-11.452c0.115,-1.453 0.21,-2.871 0.287,-4.253c0.076,-1.381 0.149,-2.636 0.218,-3.762c0.07,-1.127 0.133,-2.054 0.19,-2.781c0.058,-0.727 0.088,-1.126 0.09,-1.199Z" style="fill:#fff;fill-rule:nonzero;"/><path d="M212.511,175.998c-0.039,1.346 -0.179,6.186 -0.231,7.969c-0.052,1.782 -0.031,3.586 0.062,5.409c0.06,0.439 0.095,1.114 0.105,2.024c0.01,0.911 0,1.858 -0.028,2.84c-0.029,0.983 -0.127,4.385 -0.138,4.749c-0.019,0.655 -0.434,1.152 -1.245,1.493c-0.148,0.069 -0.476,0.095 -0.986,0.081c-0.509,-0.015 -1.091,-0.05 -1.745,-0.106c-0.654,-0.055 -1.326,-0.093 -2.018,-0.113c-0.691,-0.02 -1.364,-0.039 -2.019,-0.058c-1.601,-0.047 -2.421,-0.653 -2.46,-1.82c0,0 0.002,-0.71 0.007,-2.13c0.005,-1.42 0.034,-3.04 0.087,-4.859c0.052,-1.82 0.084,-3.548 0.096,-5.187c0.011,-1.638 0.023,-2.676 0.035,-3.113c0.017,-0.582 0.046,-1.582 0.087,-3.001c0.042,-1.42 0.067,-2.912 0.076,-4.478c0.009,-1.565 0.015,-3.04 0.019,-4.424c0.004,-1.383 0.012,-2.294 0.024,-2.73c-0.062,-0.366 -0.082,-0.913 -0.061,-1.641c0.102,-1.017 0.527,-1.842 1.273,-2.476c0.747,-0.634 1.847,-0.893 3.301,-0.778c0.727,0.021 1.455,0.061 2.181,0.118c0.727,0.058 1.453,0.133 2.179,0.227c0.725,0.094 1.212,0.254 1.461,0.48c0.248,0.225 0.437,0.631 0.565,1.218c-0.002,0.073 -0.039,0.709 -0.11,1.908c-0.071,1.2 -0.165,2.563 -0.282,4.089c-0.118,1.526 -0.196,2.963 -0.235,4.309Zm1.936,-21.521c0.118,0.95 0.131,1.77 0.038,2.459c-0.093,0.689 -0.405,1.39 -0.935,2.103c-0.989,1.428 -2.647,2.109 -4.976,2.041c-0.875,0.047 -1.727,-0.087 -2.556,-0.402c-0.828,-0.315 -1.522,-0.882 -2.081,-1.699c-0.702,-0.895 -1.167,-1.818 -1.394,-2.772c-0.227,-0.953 -0.108,-1.933 0.358,-2.939c0.464,-0.934 1.069,-1.681 1.813,-2.242c0.745,-0.561 1.557,-0.938 2.437,-1.131c0.879,-0.193 1.791,-0.221 2.734,-0.085c0.942,0.137 1.807,0.472 2.592,1.004c0.859,0.535 1.387,1.151 1.586,1.849c0.198,0.698 0.326,1.302 0.384,1.814Z" style="fill:#fff;fill-rule:nonzero;"/><path d="M230.644,162.518c0.509,0.015 0.775,0.259 0.798,0.733c0.023,0.474 0.142,1.66 0.112,2.679c-0.01,0.364 0.084,1.664 0.262,1.779c0.179,0.114 0.342,0.137 0.49,0.069c-0,-0 0.186,-0.141 0.558,-0.421c0.373,-0.281 0.874,-0.612 1.504,-0.994c0.63,-0.383 1.352,-0.781 2.165,-1.194c0.813,-0.413 1.661,-0.753 2.543,-1.019c1.32,-0.326 2.673,-0.505 4.058,-0.537c1.384,-0.033 2.657,0.022 3.819,0.165c1.161,0.143 2.175,0.318 3.043,0.525c0.868,0.208 1.446,0.388 1.733,0.542c1.006,0.466 1.828,0.982 2.468,1.547c0.639,0.565 1.416,1.37 2.333,2.416c1.12,1.562 1.979,3.317 2.578,5.265c0.599,1.947 1.041,4.309 1.324,7.085c-0.023,0.8 -0.008,1.547 0.045,2.241c0.052,0.693 0.097,1.66 0.134,2.899c-0.044,4.005 -0.171,7.133 -0.382,9.384c-0.211,2.252 -0.326,3.706 -0.345,4.361c-0.021,0.727 -0.257,1.339 -0.709,1.836c-0.224,0.212 -0.683,0.345 -1.377,0.397c-0.693,0.053 -1.494,0.048 -2.403,-0.015c-0.908,-0.063 -1.834,-0.181 -2.776,-0.354c-0.941,-0.173 -1.738,-0.341 -2.388,-0.506c-0.726,-0.094 -1.078,-0.505 -1.057,-1.232c0.008,-0.291 0.034,-0.564 0.078,-0.817c0.044,-0.254 0.108,-0.562 0.191,-0.924c0.333,-1.447 0.598,-3.041 0.794,-4.784c0.196,-1.742 0.318,-3.432 0.366,-5.069c0.047,-1.638 0.053,-3.094 0.017,-4.37c-0.035,-1.275 -0.083,-2.133 -0.143,-2.571c-0.058,-0.512 -0.117,-0.987 -0.178,-1.426c-0.06,-0.438 -0.156,-0.878 -0.289,-1.319c-0.266,-0.882 -0.606,-1.693 -1.022,-2.433c-0.415,-0.741 -1.016,-1.377 -1.802,-1.91c-0.571,-0.381 -1.147,-0.634 -1.726,-0.76c-0.579,-0.126 -1.196,-0.199 -1.851,-0.218c-1.89,-0.127 -3.798,0.363 -5.724,1.473c-0.817,0.559 -1.601,1.21 -2.35,1.953c-0.75,0.743 -1.464,1.505 -2.143,2.287c-0.383,0.644 -0.671,1.164 -0.864,1.559c-0.194,0.395 -0.372,0.881 -0.534,1.459c-0.633,1.73 -1.093,3.756 -1.378,6.078c-0.286,2.323 -0.46,4.539 -0.521,6.649c-0.021,0.728 -0.042,1.438 -0.062,2.129c-0.02,0.691 -0.114,1.435 -0.283,2.231c-0.011,0.364 -0.055,0.618 -0.132,0.761c-0.083,0.362 -0.472,0.588 -1.166,0.677c-0.695,0.089 -1.224,0.128 -1.588,0.117c-1.314,0.108 -2.423,0.039 -3.326,-0.205c-0.903,-0.245 -1.532,-0.555 -1.885,-0.929c-0.499,-0.379 -0.735,-1.041 -0.707,-1.987c0.006,-0.218 0.059,-1.419 0.159,-3.601c0.1,-2.182 0.195,-4.838 0.286,-7.967c0.091,-3.129 0.207,-6.513 0.349,-10.15c0.142,-3.638 0.25,-5.1 0.379,-8.301c0.13,-3.201 0.668,-4.965 0.929,-5.176c0.261,-0.211 0.902,-0.338 1.923,-0.381l3.82,0.111c0.364,0.011 0.691,0.038 0.981,0.083c0.29,0.045 0.581,0.072 0.872,0.08Z" style="fill:#fff;fill-rule:nonzero;"/><path d="M105.477,112.889l-8.627,-0.022c-0.582,-0.002 -1.019,0.034 -1.31,0.106c-0.583,-0.002 -0.984,0.325 -1.204,0.979c-0,0.073 -0.001,0.383 -0.003,0.929c-0.001,0.546 0.052,1.183 0.159,1.911c0.108,0.729 0.233,1.475 0.377,2.24c0.144,0.765 0.324,1.366 0.541,1.803c0.507,1.166 1.396,2.297 2.667,3.392c1.272,1.096 2.526,1.79 3.763,2.085c2.546,0.589 4.549,0.485 6.007,-0.313c1.458,-0.797 2.662,-1.922 3.612,-3.376c0.511,-0.654 0.841,-1.417 0.989,-2.291c0.293,-0.945 0.55,-1.509 0.769,-1.69c0.218,-0.182 0.801,-0.308 1.748,-0.378c0.291,0.001 0.746,0.002 1.365,0.003c0.619,0.002 1.237,0.022 1.856,0.06c0.619,0.038 1.183,0.094 1.692,0.168c0.51,0.074 0.837,0.147 0.983,0.221c0.509,0.292 0.763,0.62 0.762,0.984c0.069,1.384 -0.134,2.494 -0.609,3.33c-0.476,0.836 -0.933,1.872 -1.373,3.109c-0.659,1.308 -1.408,2.49 -2.248,3.543c-0.84,1.054 -2.281,2.197 -4.322,3.429c-1.75,1.015 -3.681,1.629 -5.793,1.842c-2.112,0.213 -4.114,0.244 -6.007,0.094c-1.965,-0.224 -3.819,-0.92 -5.564,-2.089c-0.727,-0.512 -1.435,-1.005 -2.126,-1.48c-0.69,-0.475 -1.326,-1.004 -1.907,-1.588c-2.178,-2.408 -3.555,-4.632 -4.133,-6.672c-0.433,-1.239 -0.758,-2.387 -0.974,-3.443c-0.215,-1.056 -0.394,-2.421 -0.535,-4.096c0.002,-0.728 -0.051,-1.693 -0.157,-2.895c-0.106,-1.201 -0.102,-2.603 0.011,-4.204c0.113,-1.602 0.409,-3.439 0.888,-5.513c0.478,-2.073 1.267,-4.383 2.365,-6.928c1.098,-2.473 2.651,-4.635 4.658,-6.486c2.007,-1.852 4.358,-3.102 7.053,-3.75c2.477,-0.431 4.57,-0.534 6.28,-0.312c1.711,0.223 3.129,0.573 4.257,1.049c1.127,0.476 2.017,0.988 2.671,1.535c0.654,0.548 1.126,0.931 1.417,1.151c0.509,0.438 1.035,1.112 1.578,2.024c0.544,0.911 1.051,1.914 1.522,3.007c0.47,1.093 0.868,2.241 1.192,3.443c0.325,1.202 0.559,2.313 0.702,3.332c-0.002,0.583 0.051,1.202 0.159,1.857c0.107,0.656 0.197,1.311 0.268,1.967c0.143,1.019 0.231,2.021 0.265,3.004c0.034,0.983 -0.023,1.983 -0.171,3.002c-0.075,0.583 -0.185,0.983 -0.331,1.201c-0.146,0.218 -0.511,0.399 -1.093,0.543c-0.365,0.145 -0.674,0.217 -0.929,0.216c-0.255,-0.001 -0.564,-0.001 -0.928,-0.002c-1.748,0.141 -3.587,0.173 -5.516,0.095c-1.929,-0.078 -4.167,-0.12 -6.716,-0.126Zm-7.648,-8.679c-0.33,0.654 -0.331,1.2 -0.113,1.528c0.217,0.329 0.545,0.329 0.982,0.221c0.109,0.001 0.218,0.001 0.437,0.002c3.059,-0.43 6.227,-0.858 9.393,-0.632c0.437,0.001 0.765,0.002 1.092,-0.106c0.656,-0.108 0.985,-0.871 0.768,-1.418c-0.217,-0.547 -0.652,-1.094 -1.088,-1.532c-1.525,-1.423 -2.722,-2.955 -3.81,-4.705c-0.652,-1.203 -1.417,-1.205 -2.402,-0.116c-0.548,0.654 -1.205,1.417 -1.753,2.18c-1.205,1.526 -2.411,3.161 -3.506,4.578Z" style="fill:#fff;fill-rule:nonzero;"/><path d="M305.967,115.534l-8.627,-0.022c-0.583,-0.002 -1.02,0.03 -1.311,0.094c-0.583,-0.001 -0.984,0.291 -1.204,0.877c0,0.065 -0,0.342 -0.002,0.83c-0.001,0.489 0.052,1.059 0.16,1.71c0.107,0.652 0.233,1.32 0.377,2.004c0.144,0.685 0.324,1.222 0.542,1.614c0.507,1.043 1.396,2.055 2.668,3.036c1.271,0.98 2.526,1.602 3.763,1.865c2.546,0.528 4.549,0.435 6.007,-0.277c1.457,-0.713 2.661,-1.72 3.611,-3.02c0.511,-0.585 0.84,-1.268 0.988,-2.049c0.293,-0.846 0.55,-1.351 0.768,-1.513c0.219,-0.162 0.802,-0.275 1.749,-0.337c0.291,0 0.746,0.001 1.365,0.003c0.618,0.002 1.237,0.019 1.856,0.054c0.619,0.034 1.183,0.084 1.692,0.15c0.51,0.067 0.837,0.133 0.983,0.198c0.509,0.262 0.763,0.556 0.762,0.882c0.069,1.237 -0.133,2.23 -0.608,2.978c-0.475,0.748 -0.933,1.675 -1.373,2.781c-0.658,1.171 -1.407,2.228 -2.246,3.17c-0.84,0.942 -2.28,1.965 -4.322,3.067c-1.749,0.907 -3.68,1.456 -5.792,1.646c-2.112,0.19 -4.114,0.218 -6.006,0.083c-1.966,-0.201 -3.82,-0.824 -5.565,-1.871c-0.727,-0.458 -1.436,-0.899 -2.126,-1.324c-0.691,-0.426 -1.327,-0.899 -1.908,-1.422c-2.178,-2.155 -3.557,-4.145 -4.134,-5.971c-0.434,-1.108 -0.759,-2.135 -0.975,-3.08c-0.216,-0.945 -0.395,-2.167 -0.537,-3.665c0.001,-0.652 -0.051,-1.515 -0.157,-2.59c-0.107,-1.075 -0.104,-2.329 0.009,-3.761c0.113,-1.433 0.408,-3.077 0.886,-4.932c0.478,-1.856 1.266,-3.922 2.364,-6.199c1.098,-2.212 2.65,-4.145 4.656,-5.801c2.006,-1.656 4.357,-2.774 7.052,-3.353c2.477,-0.385 4.57,-0.477 6.28,-0.277c1.711,0.199 3.13,0.512 4.257,0.939c1.127,0.426 2.018,0.884 2.672,1.374c0.654,0.49 1.126,0.834 1.417,1.03c0.509,0.392 1.035,0.996 1.579,1.811c0.544,0.816 1.051,1.713 1.522,2.691c0.471,0.978 0.869,2.005 1.193,3.081c0.325,1.075 0.559,2.069 0.703,2.982c-0.002,0.521 0.052,1.075 0.159,1.661c0.108,0.587 0.198,1.173 0.269,1.759c0.143,0.913 0.232,1.809 0.266,2.688c0.034,0.879 -0.023,1.775 -0.171,2.687c-0.074,0.52 -0.184,0.878 -0.33,1.073c-0.146,0.196 -0.51,0.357 -1.093,0.486c-0.365,0.13 -0.674,0.194 -0.929,0.193c-0.255,-0 -0.564,-0.001 -0.928,-0.002c-1.748,0.126 -3.586,0.154 -5.515,0.084c-1.929,-0.07 -4.168,-0.109 -6.716,-0.115Zm-7.16,-8.064c-0.329,0.655 -0.33,1.201 -0.113,1.529c0.218,0.328 0.545,0.329 0.983,0.221c0.109,0 0.218,0 0.436,0.001c3.059,-0.429 6.227,-0.858 9.394,-0.631c0.437,0.001 0.764,0.002 1.092,-0.107c0.656,-0.107 0.985,-0.871 0.768,-1.418c-0.217,-0.546 -0.652,-1.093 -1.088,-1.531c-1.525,-1.424 -2.723,-2.956 -3.81,-4.706c-0.653,-1.203 -1.417,-1.205 -2.403,-0.115c-0.547,0.654 -1.204,1.417 -1.752,2.18c-1.206,1.525 -2.411,3.16 -3.507,4.577Z" style="fill:#fff;fill-rule:nonzero;"/><path d="M305.19,200.766c-0.03,1.019 -0.092,2.51 -0.185,4.474c-0.093,1.964 -0.225,3.999 -0.396,6.107c-0.17,2.107 -0.355,4.086 -0.554,5.938c-0.2,1.851 -0.382,3.102 -0.546,3.753c-0.494,1.952 -1.201,3.716 -2.12,5.292c-0.85,1.65 -1.925,2.948 -3.227,3.894c-1.302,0.945 -2.617,1.69 -3.943,2.234c-1.327,0.545 -2.612,0.908 -3.856,1.09c-1.243,0.183 -2.229,0.263 -2.957,0.242c-1.53,0.029 -3.059,0.002 -4.586,-0.078c-1.527,-0.081 -3.011,-0.397 -4.452,-0.949c-2.085,-0.934 -4.012,-2.283 -5.782,-4.046c-1.77,-1.763 -3.333,-4.376 -4.689,-7.839c-0.54,-1.472 -0.923,-2.703 -1.149,-3.693c-0.226,-0.99 -0.358,-2.104 -0.395,-3.343c0.022,-0.728 0.127,-1.217 0.316,-1.466c0.189,-0.25 0.653,-0.546 1.391,-0.888c0.148,-0.069 0.496,-0.132 1.044,-0.189c0.548,-0.057 1.132,-0.112 1.753,-0.167c0.62,-0.055 1.223,-0.11 1.807,-0.166c0.585,-0.056 1.06,-0.115 1.426,-0.177c0.879,-0.193 1.413,0.223 1.602,1.248c0.363,2.56 0.941,4.616 1.733,6.168c0.793,1.553 1.632,2.761 2.517,3.624c0.885,0.863 1.742,1.453 2.571,1.768c0.828,0.315 1.497,0.48 2.006,0.495c1.961,0.203 3.716,-0.038 5.265,-0.721c1.034,-0.48 1.796,-1.004 2.286,-1.572c0.49,-0.569 1.08,-1.462 1.771,-2.68c0.622,-1.366 1.101,-2.809 1.437,-4.329c0.335,-1.519 0.577,-2.951 0.725,-4.294c0.148,-1.343 0.221,-2.579 0.217,-3.708c-0.004,-1.129 0.004,-2.021 0.023,-2.676c-0.069,-0.148 -0.1,-0.313 -0.095,-0.495c0.005,-0.182 -0.026,-0.346 -0.095,-0.494l-0.199,-0.661c-0.287,-0.154 -0.542,-0.144 -0.766,0.032c-0.223,0.176 -0.483,0.332 -0.778,0.469c-0.664,0.272 -1.198,0.493 -1.604,0.664c-0.405,0.17 -0.773,0.305 -1.104,0.405c-0.331,0.099 -0.698,0.198 -1.101,0.295c-0.403,0.098 -0.935,0.21 -1.594,0.337c-1.171,0.184 -2.523,0.345 -4.056,0.483c-1.534,0.137 -3.134,0.073 -4.802,-0.194c-1.667,-0.267 -3.345,-0.808 -5.033,-1.621c-1.688,-0.814 -3.308,-2.081 -4.86,-3.801c-1.125,-1.417 -2.028,-2.918 -2.71,-4.504c-0.683,-1.585 -1.07,-3.29 -1.163,-5.114c-0.091,-1.896 0.161,-7.553 0.644,-9.141c0.335,-1.52 0.85,-2.944 1.544,-4.271c0.694,-1.327 1.563,-2.413 2.607,-3.257c4.699,-3.796 9.98,-5.063 15.843,-3.801c1.593,0.338 3.072,0.818 4.438,1.44c1.365,0.622 2.614,1.533 3.744,2.731c0.141,0.15 0.248,0.226 0.321,0.228c0.354,0.374 0.61,0.309 0.771,-0.196c0.087,-0.508 0.174,-0.979 0.259,-1.413c0.086,-0.435 0.099,-0.908 0.041,-1.419c-0.07,-0.075 -0.101,-0.258 -0.093,-0.549c-0.122,-0.805 -0.071,-1.331 0.155,-1.58c0.226,-0.248 0.741,-0.434 1.546,-0.556c1.316,-0.18 2.553,-0.144 3.711,0.108c0.435,0.085 0.888,0.153 1.36,0.203c0.472,0.05 0.926,0.082 1.363,0.094c0.578,0.163 0.896,0.5 0.954,1.011c0.135,0.368 0.197,0.753 0.185,1.153l-0.097,3.329c-0.036,1.237 -0.061,2.748 -0.077,4.532c-0.015,1.784 -0.034,3.695 -0.057,5.734c-0.023,2.039 -0.115,7.864 -0.167,9.647c-0.051,1.783 -0.078,3.312 -0.078,4.587c-0.001,1.274 -0.004,2.021 -0.01,2.239Zm-27.898,-11.966c-0.007,0.218 -0.132,0.761 -0.151,1.416c-0.022,0.764 0.28,1.647 0.923,2.103c0.966,0.574 1.933,1.148 3.146,0.746c0.992,-0.299 1.975,-0.27 3.06,-0.02c1.088,0.141 2.289,0.176 3.484,0.429c0.76,0.131 1.531,-0.065 2.301,-0.261c0.995,-0.408 1.339,-0.945 1.152,-2.043c-0.186,-1.097 -0.155,-2.189 0.095,-3.274c0.144,-1.198 0.394,-2.283 0.538,-3.481c0.173,-2.18 -0.781,-3.191 -2.74,-3.466c-0.327,-0.01 -0.545,-0.016 -0.873,-0.025c-0.437,-0.013 -0.873,-0.026 -1.307,-0.148c-1.515,-0.481 -3.153,-0.528 -4.675,-0.791c-0.761,-0.131 -1.525,-0.153 -2.186,0.046c-1.753,0.168 -2.433,1.022 -2.375,2.772c0.084,0.876 0.168,1.752 -0.076,2.619c-0.247,0.977 -0.384,1.956 -0.316,3.378Zm4.205,-1.844c0.131,-0.761 0.263,-1.522 0.506,-2.389c0.125,-0.543 0.571,-0.858 1.117,-0.842c0.986,-0.081 1.965,0.057 2.941,0.304c0.761,0.131 1.288,0.802 1.153,1.672c-0.031,1.092 -0.285,2.286 -0.753,3.365c-0.118,0.324 -0.455,0.642 -0.78,0.524c-0.976,-0.247 -1.961,-0.166 -2.832,-0.301c-0.979,-0.138 -1.294,-0.584 -1.371,-1.678c0.006,-0.219 0.013,-0.437 0.019,-0.655Z" style="fill:#fff;fill-rule:nonzero;"/><path d="M240.887,126.91c-0,0.291 -0.02,1.019 -0.06,2.184c-0.039,1.164 -0.228,3.002 -0.265,3.438c-0.038,0.437 -0.094,0.874 -0.168,1.31c-0.074,0.51 -0.366,0.873 -0.876,1.09c-0.729,0.29 -1.275,0.47 -1.639,0.542c-0.51,0.072 -1.129,0.106 -1.857,0.105c-0.728,-0.002 -1.42,-0.004 -2.075,-0.006c-0.655,-0.001 -1.238,-0.021 -1.747,-0.059c-0.51,-0.037 -0.801,-0.056 -0.874,-0.057c-0.945,-0.366 -1.417,-0.986 -1.415,-1.86c0.001,-0.072 0.043,-1.692 0.044,-1.91c-0.51,-0.147 -0.946,-0.093 -1.311,0.16c-0.365,0.254 -0.766,0.454 -1.203,0.598c-2.114,0.941 -4.19,1.555 -6.229,1.841c-0.947,0.143 -2.112,0.195 -3.495,0.155c-1.384,-0.04 -2.821,-0.244 -4.312,-0.612c-1.492,-0.368 -2.983,-0.954 -4.473,-1.759c-1.491,-0.804 -2.78,-1.9 -3.869,-3.286c-0.218,-0.219 -0.363,-0.401 -0.435,-0.547c-1.089,-1.313 -1.941,-2.735 -2.556,-4.265c-0.615,-1.531 -1.03,-3.006 -1.244,-4.426c-0.215,-1.42 -0.178,-6.663 -0.102,-7.901c0.076,-1.237 0.224,-2.292 0.445,-3.165c0.665,-4.149 2.567,-7.493 5.704,-10.033c1.24,-0.87 2.333,-1.559 3.281,-2.067c0.948,-0.507 1.859,-0.923 2.734,-1.248c0.874,-0.326 1.712,-0.56 2.513,-0.704c0.801,-0.144 1.675,-0.287 2.622,-0.43c3.131,-0.065 5.46,0.232 6.987,0.891c1.527,0.659 2.654,1.135 3.382,1.429c0.363,0.146 0.691,0.329 0.981,0.548c0.291,0.219 0.618,0.438 0.981,0.658c0.364,0.146 0.619,0.038 0.766,-0.326c0.219,-0.363 0.257,-0.836 0.113,-1.419c0,-0.364 -0.017,-0.765 -0.052,-1.202c-0.035,-0.437 -0.016,-0.837 0.058,-1.201c0.002,-1.092 0.586,-1.746 1.752,-1.961l6.006,0.015c1.019,0.003 1.638,0.132 1.856,0.387c0.217,0.255 0.325,0.893 0.322,1.912l-0.04,15.835c-0.005,2.111 -0.117,8.009 -0.121,9.865c-0.005,1.857 -0.027,3.477 -0.067,4.86c-0.04,1.383 -0.061,2.257 -0.062,2.621Zm-28.437,-10.818c-0.009,0.219 -0.141,0.759 -0.169,1.414c-0.032,0.764 0.259,1.651 0.895,2.115c0.959,0.587 1.918,1.174 3.136,0.788c0.996,-0.286 1.978,-0.245 3.06,0.019c1.087,0.156 2.287,0.206 3.478,0.475c0.759,0.141 1.532,-0.045 2.305,-0.231c1,-0.395 1.351,-0.927 1.178,-2.027c-0.172,-1.1 -0.126,-2.191 0.138,-3.273c0.16,-1.196 0.424,-2.278 0.584,-3.473c0.201,-2.178 -0.739,-3.201 -2.694,-3.502c-0.328,-0.014 -0.546,-0.023 -0.873,-0.037c-0.437,-0.018 -0.873,-0.037 -1.305,-0.164c-1.509,-0.501 -3.146,-0.57 -4.664,-0.853c-0.759,-0.141 -1.523,-0.173 -2.187,0.017c-1.755,0.145 -2.446,0.99 -2.411,2.741c0.073,0.877 0.145,1.754 -0.11,2.618c-0.26,0.973 -0.41,1.95 -0.361,3.373Zm4.229,-1.789c0.141,-0.759 0.283,-1.518 0.538,-2.382c0.132,-0.541 0.582,-0.85 1.128,-0.827c0.986,-0.067 1.964,0.083 2.936,0.343c0.76,0.141 1.278,0.819 1.132,1.687c-0.046,1.091 -0.315,2.282 -0.798,3.355c-0.123,0.323 -0.464,0.636 -0.786,0.513c-0.973,-0.259 -1.96,-0.192 -2.828,-0.338c-0.977,-0.15 -1.286,-0.6 -1.349,-1.696c0.009,-0.218 0.018,-0.437 0.027,-0.655Z" style="fill:#fff;fill-rule:nonzero;"/><path d="M69.663,180.565c-0.03,1.019 -0.091,2.51 -0.185,4.474c-0.093,1.964 -0.225,3.999 -0.395,6.106c-0.171,2.108 -0.356,4.087 -0.555,5.939c-0.2,1.851 -0.382,3.102 -0.546,3.753c-0.494,1.952 -1.2,3.716 -2.12,5.292c-0.849,1.65 -1.925,2.948 -3.227,3.894c-1.302,0.945 -2.616,1.69 -3.943,2.234c-1.327,0.544 -2.612,0.908 -3.856,1.09c-1.243,0.182 -2.229,0.263 -2.956,0.242c-1.531,0.028 -3.06,0.002 -4.587,-0.078c-1.527,-0.081 -3.011,-0.397 -4.452,-0.949c-2.085,-0.935 -4.012,-2.283 -5.782,-4.046c-1.769,-1.763 -3.332,-4.376 -4.689,-7.839c-0.54,-1.472 -0.923,-2.703 -1.149,-3.693c-0.226,-0.99 -0.357,-2.104 -0.394,-3.344c0.021,-0.727 0.126,-1.216 0.315,-1.465c0.19,-0.25 0.653,-0.546 1.392,-0.889c0.147,-0.068 0.495,-0.131 1.043,-0.188c0.548,-0.057 1.132,-0.113 1.753,-0.167c0.621,-0.055 1.223,-0.111 1.807,-0.166c0.585,-0.056 1.06,-0.115 1.426,-0.178c0.88,-0.193 1.414,0.224 1.602,1.249c0.363,2.559 0.941,4.616 1.733,6.168c0.793,1.553 1.632,2.761 2.517,3.624c0.886,0.863 1.742,1.452 2.571,1.768c0.828,0.315 1.497,0.48 2.007,0.495c1.96,0.203 3.715,-0.038 5.265,-0.721c1.033,-0.48 1.795,-1.004 2.285,-1.573c0.49,-0.568 1.08,-1.461 1.771,-2.679c0.623,-1.366 1.101,-2.809 1.437,-4.329c0.335,-1.52 0.577,-2.951 0.725,-4.294c0.149,-1.343 0.221,-2.579 0.217,-3.708c-0.003,-1.13 0.004,-2.022 0.023,-2.676c-0.068,-0.148 -0.1,-0.313 -0.095,-0.495c0.006,-0.182 -0.026,-0.347 -0.095,-0.494l-0.199,-0.662c-0.287,-0.154 -0.542,-0.143 -0.766,0.033c-0.223,0.175 -0.483,0.332 -0.778,0.469c-0.663,0.272 -1.198,0.493 -1.603,0.663c-0.406,0.171 -0.774,0.306 -1.105,0.405c-0.33,0.1 -0.697,0.199 -1.101,0.296c-0.403,0.098 -0.934,0.21 -1.594,0.336c-1.17,0.185 -2.522,0.346 -4.056,0.484c-1.533,0.137 -3.134,0.072 -4.801,-0.194c-1.668,-0.267 -3.346,-0.808 -5.034,-1.621c-1.688,-0.814 -3.308,-2.081 -4.86,-3.801c-1.124,-1.417 -2.028,-2.918 -2.71,-4.504c-0.682,-1.586 -1.07,-3.29 -1.163,-5.114c-0.09,-1.896 0.106,-3.638 0.589,-5.227c0.336,-1.52 0.85,-2.943 1.544,-4.27c0.694,-1.328 1.563,-2.413 2.608,-3.257c4.698,-3.797 9.979,-5.064 15.842,-3.801c1.593,0.338 3.072,0.818 4.438,1.44c1.366,0.622 2.614,1.532 3.744,2.731c0.142,0.149 0.249,0.225 0.321,0.227c0.354,0.375 0.611,0.31 0.771,-0.196c0.087,-0.507 0.174,-0.978 0.259,-1.412c0.086,-0.435 0.1,-0.908 0.042,-1.419c-0.071,-0.075 -0.102,-0.258 -0.094,-0.549c-0.122,-0.805 -0.07,-1.332 0.155,-1.58c0.226,-0.248 0.741,-0.434 1.546,-0.556c1.316,-0.18 2.553,-0.145 3.711,0.108c0.435,0.085 0.888,0.153 1.36,0.203c0.472,0.05 0.926,0.081 1.363,0.094c0.578,0.163 0.896,0.5 0.954,1.011c0.135,0.368 0.197,0.752 0.185,1.153l-0.097,3.329c-0.035,1.237 -0.061,2.748 -0.076,4.532c-0.016,1.784 -0.035,3.695 -0.058,5.734c-0.022,2.038 -0.06,3.949 -0.111,5.732c-0.052,1.783 -0.078,3.312 -0.079,4.586c-0,1.275 -0.004,2.022 -0.01,2.24Zm-9.923,-8.881c0.433,-0.332 0.756,-0.772 1.079,-1.213c-0.883,-0.864 -1.873,-1.618 -2.864,-2.372c-0.11,0.001 -0.218,0.112 -0.435,0.223c-1.519,0.89 -3.037,1.998 -4.667,2.78c-1.195,0.559 -1.728,1.766 -1.935,2.86c0.329,0.106 0.549,0.322 0.659,0.32c0.988,0.536 1.76,1.183 2.423,1.941c0.326,-0.113 0.652,-0.335 0.866,-0.665c1.404,-1.544 3.028,-2.871 4.874,-3.874Zm-10.381,-0.545c0.751,-1.319 1.944,-2.096 3.248,-2.656c0.326,-0.222 0.761,-0.335 1.087,-0.557c0.65,-0.444 1.081,-0.995 1.401,-1.762c-1.099,-0.644 -2.306,-1.177 -3.405,-1.821c-0.325,0.222 -0.542,0.443 -0.867,0.664c-1.188,1.214 -2.596,2.321 -4.006,3.319c-0.433,0.332 -0.974,0.775 -1.406,1.216c-0.325,0.332 -0.54,0.661 -0.646,0.881c1.099,0.644 2.308,1.395 3.406,1.93c0.434,-0.223 0.866,-0.665 1.188,-1.214Zm-0.952,-7.417c0.326,-0.112 0.65,-0.443 0.867,-0.664c-0.44,-0.214 -0.769,-0.429 -1.209,-0.642c-0.988,-0.536 -1.758,-1.074 -2.419,-1.613c-1.295,1.543 -2.811,2.76 -4.218,3.976c-0.432,0.442 -0.864,0.883 -1.296,1.325c-0.107,0.219 -0.214,0.439 -0.321,0.658c0.552,0.54 1.104,1.081 1.654,1.512c0.111,0.108 0.33,0.215 0.551,0.431c0.217,-0.112 0.433,-0.333 0.651,-0.444c1.838,-1.767 3.788,-3.207 5.74,-4.539Z" style="fill:#fff;fill-rule:nonzero;"/><path d="M116.145,187.663c-0.009,0.291 -0.048,1.018 -0.118,2.182c-0.07,1.163 -0.049,1.67 -0.077,2.616c-0.012,0.437 -0.043,0.873 -0.092,1.308c-0.049,0.436 -0.117,0.871 -0.202,1.305c-0.088,0.508 -0.389,0.863 -0.905,1.067c-0.736,0.27 -1.287,0.436 -1.653,0.498c-0.512,0.058 -1.131,0.076 -1.859,0.055c-0.728,-0.021 -1.419,-0.041 -2.074,-0.06c-0.655,-0.019 -1.237,-0.054 -1.745,-0.105c-0.508,-0.051 -0.799,-0.078 -0.872,-0.08c-0.935,-0.392 -1.39,-1.024 -1.365,-1.897c0.002,-0.073 -0.1,-2.184 -0.094,-2.403c-0.505,-0.16 -0.943,-0.118 -1.314,0.126c-0.371,0.244 -0.778,0.433 -1.218,0.566c-2.138,0.884 -4.23,1.443 -6.276,1.675c-0.951,0.118 -2.117,0.139 -3.498,0.062c-1.382,-0.077 -2.813,-0.318 -4.295,-0.726c-1.481,-0.407 -2.956,-1.032 -4.425,-1.876c-1.468,-0.844 -2.728,-1.973 -3.78,-3.387c-0.212,-0.225 -0.352,-0.411 -0.42,-0.559c-1.054,-1.341 -1.868,-2.785 -2.442,-4.331c-0.574,-1.547 -0.95,-3.032 -1.127,-4.458c-0.177,-1.425 -0.184,-4.713 -0.075,-5.948c0.108,-1.235 0.285,-2.286 0.528,-3.153c0.776,-4.129 2.765,-7.422 5.968,-9.878c1.263,-0.837 2.374,-1.497 3.335,-1.979c0.961,-0.482 1.883,-0.874 2.765,-1.176c0.883,-0.302 1.727,-0.514 2.532,-0.637c0.804,-0.122 1.682,-0.242 2.632,-0.36c3.132,0.018 5.452,0.377 6.961,1.076c1.509,0.699 2.624,1.205 3.343,1.517c0.36,0.156 0.682,0.348 0.966,0.574c0.285,0.227 0.606,0.455 0.964,0.684c0.36,0.156 0.617,0.054 0.774,-0.305c0.228,-0.358 0.279,-0.83 0.15,-1.416c0.01,-0.364 0.004,-0.765 -0.02,-1.203c-0.024,-0.437 0.006,-0.837 0.09,-1.199c0.031,-1.091 0.632,-1.729 1.803,-1.914l6.004,0.174c1.019,0.03 1.634,0.175 1.845,0.436c0.211,0.261 0.301,0.901 0.272,1.92l-0.46,15.828c-0.061,2.111 -0.146,6.051 -0.2,7.907c-0.054,1.856 -0.119,3.474 -0.196,4.856c-0.076,1.381 -0.12,2.254 -0.13,2.618Zm-11.62,-15.654c-0.627,-2.079 -2.188,-3.497 -4.233,-4.015l-3.431,-0.099c-2.509,-0.302 -4.379,1.017 -6.249,2.336c-1.405,1.104 -1.674,2.47 -1.949,4.064c-0.013,0.458 -0.02,0.687 -0.255,0.909c-0.504,1.587 -0.086,2.973 0.567,4.137c1.319,1.869 2.9,2.602 4.723,2.884c1.595,0.275 3.202,0.093 4.81,-0.09c5.509,-0.526 7.041,-5.976 6.017,-10.126Zm-6.322,4.852c-0.719,1.124 -2.098,1.313 -2.986,0.372c-0.445,-0.471 -0.667,-0.706 -0.653,-1.164c-0.438,-0.699 -0.189,-1.379 0.503,-1.588c0.7,-0.437 1.386,-0.417 2.079,-0.626c0.921,-0.202 1.366,0.268 1.326,1.641c-0.007,0.228 -0.02,0.686 -0.269,1.365Z" style="fill:#fff;fill-rule:nonzero;"/><path d="M44.606,126.772l0.027,-10.593c0.002,-1.019 0.112,-6.025 0.114,-7.19l0.037,-14.252c0.005,-2.147 -0.061,-4.687 -0.06,-4.905c-0.143,-1.093 0.295,-1.638 1.315,-1.635c0.364,-0.072 0.873,-0.107 1.529,-0.105l5.023,0.012c0.947,0.003 1.747,0.15 2.402,0.443c0.363,0.147 0.617,0.73 0.76,1.749c0.143,1.02 0.069,1.175 0.067,1.685c-0,0.364 0.035,0.655 0.107,0.874c-0.001,0.436 0.217,0.583 0.655,0.438c0.218,-0.145 0.437,-0.235 0.656,-0.271c0.218,-0.036 0.473,-0.126 0.765,-0.271c1.166,-0.507 2.441,-0.941 3.825,-1.301c1.238,-0.215 2.422,-0.285 3.55,-0.209c1.128,0.075 2.147,0.223 3.057,0.444c0.909,0.221 1.691,0.478 2.346,0.771c0.654,0.292 1.127,0.512 1.418,0.658c1.381,0.805 2.525,1.681 3.433,2.63c0.907,0.949 1.633,1.861 2.177,2.736c0.544,0.875 0.942,1.64 1.195,2.296c0.254,0.656 0.416,1.093 0.489,1.312c0.289,0.801 0.505,1.657 0.648,2.568c0.144,0.91 0.251,1.748 0.321,2.512c0.071,0.765 0.106,1.42 0.105,1.966c-0.002,0.546 -0.002,0.856 -0.003,0.929c-0.005,2.111 -0.334,7.753 -0.775,9.099c-0.44,1.346 -0.989,2.455 -1.646,3.327c-0.658,0.872 -1.369,1.561 -2.135,2.069c-0.766,0.508 -1.477,0.943 -2.133,1.305c-2.332,1.159 -4.482,1.863 -6.448,2.113c-1.967,0.25 -3.968,0.081 -6.005,-0.506c-1.164,-0.367 -2.055,-0.661 -2.674,-0.881c-0.618,-0.22 -1.327,-0.476 -2.127,-0.77c-0.946,-0.293 -1.42,0.07 -1.423,1.089c-0,0.218 0.015,1.238 0.047,3.058c0.032,1.82 0.045,3.767 0.04,5.842c-0.005,2.075 0.008,3.968 0.04,5.679c0.032,1.711 0.048,2.603 0.048,2.676c-0.001,0.582 -0.294,1.055 -0.877,1.417c-0.146,0.073 -0.601,0.108 -1.366,0.106c-0.764,-0.002 -1.601,-0.004 -2.511,-0.006c-0.91,-0.003 -1.766,0.013 -2.567,0.048c-0.801,0.034 -1.347,0.051 -1.638,0.05c-1.019,-0.148 -1.601,-0.459 -1.745,-0.933c-0.144,-0.473 -0.252,-0.892 -0.324,-1.256c0.001,-0.437 0.003,-1.438 0.007,-3.003c0.004,-1.566 0.027,-3.258 0.068,-5.078c0.041,-1.82 0.082,-3.567 0.122,-5.242c0.041,-1.674 0.062,-2.839 0.064,-3.494Zm17.746,-25.424c-2.067,0.177 -3.7,1.359 -4.586,3.171l-0.767,3.189c-0.774,2.288 0.092,4.296 0.959,6.303c0.757,1.532 1.981,2.051 3.419,2.622c0.425,0.102 0.637,0.153 0.799,0.417c1.386,0.783 2.764,0.664 3.981,0.282c2.007,-0.867 3.003,-2.202 3.625,-3.852c0.57,-1.437 0.715,-2.977 0.861,-4.516c0.589,-5.257 -4.208,-7.759 -8.291,-7.616Zm3.298,6.865c0.91,0.894 0.816,2.221 -0.239,2.867c-0.528,0.323 -0.792,0.484 -1.217,0.382c-0.74,0.272 -1.327,-0.094 -1.386,-0.783c-0.272,-0.74 -0.119,-1.378 -0.178,-2.067c-0.008,-0.902 0.519,-1.225 1.795,-0.918c0.213,0.051 0.638,0.153 1.225,0.519Z" style="fill:#fff;fill-rule:nonzero;"/><path d="M264.347,60.582l1.527,23.422l15.352,-17.756l-16.879,-5.666Z" style="fill:#d62e2f;fill-rule:nonzero;"/><path d="M285.722,67.509l3.029,22.165l13.4,-17.914l-16.429,-4.251Z" style="fill:#eba607;fill-rule:nonzero;"/><path d="M309.035,72.9l5.041,21.8l11.711,-19.066l-16.752,-2.734Z" style="fill:#d62e2f;fill-rule:nonzero;"/><path d="M248.933,52.343l1.08,2.672c0,0 1.076,0.52 1.619,0.779c21.98,10.469 50.137,19.805 82.354,21.301c0.763,0.036 2.294,0.093 2.294,0.093l-1.53,-1.976c-0,-0 -1.062,-0.049 -1.591,-0.077c-32.394,-1.691 -60.613,-11.316 -82.465,-21.928c-0.592,-0.287 -1.761,-0.864 -1.761,-0.864Z" style="fill:#fff;"/><path d="M19.116,162.898c0.162,-0.862 0.336,-1.722 0.523,-2.579c0.038,-0.34 0.077,-0.679 0.118,-1.019c0.003,-0.008 0.009,-0.013 0.01,-0.021c0.206,-1.484 0.449,-2.93 0.948,-4.353c0.095,-0.272 0.172,-0.527 0.236,-0.777c0.334,-0.052 0.665,-0.117 1,-0.179c0.558,-0.104 1.121,-0.19 1.685,-0.255c0.561,-0.064 1.125,-0.101 1.69,-0.112c0.457,-0.009 0.927,0.014 1.372,-0.085c0.181,0.012 0.355,0.006 0.508,-0.054c0.062,-0.025 0.126,-0.1 0.095,-0.169c-0.183,-0.425 -0.912,-0.578 -1.317,-0.716c-0.606,-0.205 -1.227,-0.374 -1.839,-0.558c-1.045,-0.315 -2.105,-0.588 -3.16,-0.876c-0.447,-2.72 -1.048,-5.413 -1.488,-8.134c-0.046,-0.281 -0.578,-0.251 -0.667,-0.018c-0.568,1.477 -0.737,3.15 -1.053,4.693c-0.226,1.107 -0.452,2.215 -0.679,3.322c-0.055,0.006 -0.11,0.012 -0.165,0.019c-0.57,0.072 -1.135,0.196 -1.699,0.302c-0.564,0.106 -1.132,0.2 -1.693,0.321c-0.509,0.111 -1.054,0.21 -1.505,0.47c-0.149,0.086 -0.045,0.281 0.096,0.304c0.245,0.038 0.496,0.036 0.747,0.021c0.389,0.17 0.851,0.235 1.28,0.314c0.132,0.026 0.263,0.051 0.396,0.073c0.463,0.093 0.928,0.172 1.394,0.251c0.471,0.08 0.942,0.161 1.415,0.235c0.117,0.726 0.235,1.45 0.353,2.175c0.107,0.664 0.315,1.302 0.466,1.955c0.029,0.134 0.054,0.269 0.083,0.404c0.011,0.052 0.023,0.104 0.033,0.156c0.288,1.574 0.55,3.146 0.604,4.744c0.004,0.105 0.111,0.152 0.213,0.146" style="fill:#ec323e;fill-rule:nonzero;"/><path d="M227.295,89.99c0.155,-0.827 0.322,-1.65 0.501,-2.471c0.036,-0.325 0.074,-0.65 0.113,-0.976c0.003,-0.007 0.009,-0.011 0.01,-0.019c0.197,-1.422 0.43,-2.806 0.908,-4.169c0.091,-0.261 0.164,-0.505 0.226,-0.744c0.319,-0.05 0.636,-0.112 0.957,-0.172c0.534,-0.099 1.073,-0.181 1.614,-0.243c0.537,-0.062 1.077,-0.097 1.619,-0.108c0.436,-0.008 0.887,0.013 1.313,-0.082c0.173,0.012 0.34,0.006 0.486,-0.051c0.06,-0.024 0.121,-0.096 0.092,-0.162c-0.176,-0.407 -0.873,-0.553 -1.262,-0.685c-0.58,-0.197 -1.174,-0.359 -1.761,-0.535c-1,-0.302 -2.016,-0.564 -3.026,-0.839c-0.428,-2.604 -1.003,-5.184 -1.425,-7.79c-0.044,-0.269 -0.553,-0.239 -0.639,-0.017c-0.544,1.415 -0.705,3.017 -1.008,4.495c-0.217,1.06 -0.433,2.12 -0.65,3.181c-0.053,0.006 -0.106,0.011 -0.158,0.018c-0.546,0.069 -1.088,0.188 -1.627,0.289c-0.54,0.102 -1.085,0.192 -1.621,0.308c-0.488,0.106 -1.01,0.201 -1.442,0.45c-0.142,0.083 -0.043,0.269 0.092,0.29c0.234,0.037 0.475,0.035 0.715,0.021c0.373,0.163 0.815,0.225 1.226,0.301c0.127,0.025 0.253,0.048 0.38,0.07c0.443,0.088 0.888,0.165 1.334,0.24c0.451,0.077 0.903,0.154 1.355,0.225c0.113,0.695 0.225,1.389 0.338,2.083c0.103,0.636 0.302,1.247 0.447,1.872c0.027,0.129 0.051,0.258 0.079,0.387c0.011,0.05 0.022,0.1 0.032,0.149c0.276,1.508 0.527,3.014 0.579,4.543c0.003,0.101 0.105,0.146 0.203,0.141" style="fill:#f8a930;fill-rule:nonzero;"/><path d="M41.246,69.312c0.065,-0.092 0.131,-0.184 0.197,-0.275c0.119,-0.149 0.242,-0.294 0.364,-0.44c0.012,0.011 0.025,0.021 0.037,0.029c-0.201,0.227 -0.4,0.455 -0.598,0.686m4.113,-5.977c0.09,-0.071 0.181,-0.141 0.271,-0.213c-0.071,0.079 -0.141,0.158 -0.211,0.237c-0.021,-0.007 -0.043,-0.009 -0.065,-0.008c0.001,-0.006 0.003,-0.011 0.005,-0.016m1.33,-2.443c-0.096,0.057 -0.191,0.114 -0.287,0.171c-0.141,0.073 -0.284,0.142 -0.425,0.213c-0.016,-0.014 -0.038,-0.021 -0.06,-0.022c0.258,-0.119 0.515,-0.239 0.772,-0.362m3.353,9.091c-1.354,-1.613 -2.678,-3.259 -4.051,-4.855c-0.21,-0.33 -0.437,-0.645 -0.675,-0.952c1.444,-1.645 2.92,-3.262 4.45,-4.821c0.141,-0.143 -0.023,-0.511 -0.228,-0.408c-1.839,0.922 -3.7,1.807 -5.529,2.751c-0.45,-1.585 -0.875,-3.179 -1.255,-4.783c-0.047,-0.198 -0.437,-0.24 -0.457,-0.005c-0.046,0.558 -0.097,1.117 -0.148,1.675c-0.011,0.065 -0.023,0.131 -0.034,0.196c-0.105,0.587 -0.205,1.173 -0.301,1.761c-0.094,0.57 -0.186,1.139 -0.277,1.709c-1.874,-0.372 -3.743,-0.779 -5.596,-1.251c-0.191,-0.049 -0.409,0.289 -0.218,0.415c1.748,1.154 3.476,2.348 5.238,3.479c-0.11,0.421 -0.197,0.851 -0.301,1.272c-0.142,0.579 -0.291,1.156 -0.445,1.731c-0.151,0.561 -0.308,1.12 -0.473,1.676c-0.166,0.564 -0.363,1.122 -0.458,1.703c-0,0.006 0.001,0.01 0.001,0.015c-0.088,0.234 -0.174,0.47 -0.265,0.703c-0.073,0.189 0.22,0.458 0.368,0.279c1.458,-1.763 2.96,-3.495 4.387,-5.286c2.009,1.056 3.999,2.155 5.945,3.331c0.17,0.102 0.471,-0.158 0.322,-0.335" style="fill:#f8a930;fill-rule:nonzero;"/><path d="M306.179,156.899c0.07,-0.093 0.139,-0.187 0.209,-0.28c0.127,-0.151 0.258,-0.299 0.387,-0.448c0.013,0.011 0.027,0.02 0.041,0.028c-0.214,0.232 -0.426,0.465 -0.637,0.7m4.357,-6.084c0.097,-0.072 0.194,-0.144 0.29,-0.217c-0.075,0.08 -0.15,0.161 -0.225,0.242c-0.022,-0.007 -0.046,-0.009 -0.07,-0.008c0.002,-0.006 0.004,-0.011 0.005,-0.017m1.402,-2.481c-0.103,0.058 -0.205,0.117 -0.308,0.175c-0.151,0.076 -0.304,0.147 -0.457,0.221c-0.017,-0.014 -0.04,-0.021 -0.065,-0.021c0.277,-0.124 0.554,-0.248 0.83,-0.375m3.765,9.135c-1.489,-1.611 -2.946,-3.257 -4.456,-4.851c-0.232,-0.331 -0.482,-0.645 -0.744,-0.953c1.537,-1.678 3.108,-3.328 4.739,-4.92c0.15,-0.146 -0.033,-0.516 -0.253,-0.409c-1.974,0.953 -3.973,1.869 -5.937,2.844c-0.511,-1.595 -0.995,-3.198 -1.431,-4.813c-0.053,-0.198 -0.476,-0.236 -0.493,0.001c-0.042,0.564 -0.088,1.128 -0.135,1.692c-0.011,0.067 -0.023,0.133 -0.034,0.199c-0.104,0.593 -0.204,1.187 -0.299,1.781c-0.093,0.576 -0.184,1.152 -0.273,1.729c-2.033,-0.353 -4.061,-0.741 -6.072,-1.195c-0.207,-0.047 -0.438,0.297 -0.229,0.422c1.908,1.143 3.795,2.327 5.718,3.447c-0.113,0.427 -0.2,0.862 -0.306,1.288c-0.145,0.586 -0.298,1.17 -0.456,1.753c-0.154,0.567 -0.316,1.134 -0.485,1.698c-0.172,0.57 -0.376,1.136 -0.469,1.723c-0.001,0.007 0.001,0.011 0.001,0.016c-0.092,0.238 -0.182,0.476 -0.276,0.713c-0.076,0.191 0.245,0.459 0.402,0.277c1.55,-1.798 3.149,-3.565 4.664,-5.39c2.189,1.042 4.358,2.127 6.481,3.29c0.185,0.101 0.507,-0.165 0.343,-0.342" style="fill:#f8a930;fill-rule:nonzero;"/><path d="M83.595,21.951c0.134,-0.687 0.278,-1.372 0.433,-2.054c0.031,-0.27 0.064,-0.54 0.098,-0.811c0.001,-0.006 0.007,-0.01 0.008,-0.016c0.17,-1.182 0.371,-2.332 0.786,-3.464c0.079,-0.216 0.142,-0.42 0.196,-0.618c0.278,-0.042 0.555,-0.093 0.833,-0.142c0.465,-0.082 0.935,-0.15 1.405,-0.201c0.468,-0.05 0.938,-0.079 1.409,-0.088c0.381,-0.007 0.773,0.012 1.144,-0.066c0.151,0.01 0.296,0.005 0.423,-0.042c0.052,-0.02 0.105,-0.08 0.08,-0.135c-0.154,-0.339 -0.761,-0.461 -1.099,-0.571c-0.505,-0.164 -1.024,-0.299 -1.534,-0.446c-0.872,-0.252 -1.757,-0.471 -2.636,-0.701c-0.375,-2.165 -0.879,-4.31 -1.249,-6.476c-0.039,-0.224 -0.482,-0.201 -0.556,-0.015c-0.472,1.175 -0.612,2.507 -0.873,3.734c-0.187,0.882 -0.375,1.763 -0.563,2.644c-0.046,0.005 -0.092,0.01 -0.138,0.015c-0.475,0.056 -0.946,0.155 -1.416,0.239c-0.47,0.084 -0.943,0.158 -1.411,0.254c-0.424,0.087 -0.879,0.166 -1.255,0.373c-0.123,0.068 -0.037,0.223 0.08,0.241c0.205,0.031 0.414,0.029 0.624,0.018c0.325,0.136 0.71,0.187 1.067,0.251c0.11,0.021 0.22,0.04 0.331,0.059c0.386,0.074 0.773,0.138 1.162,0.201c0.393,0.064 0.786,0.128 1.179,0.188c0.1,0.578 0.199,1.155 0.297,1.732c0.091,0.529 0.265,1.037 0.392,1.557c0.023,0.107 0.044,0.214 0.069,0.322c0.009,0.041 0.018,0.082 0.028,0.124c0.241,1.253 0.462,2.505 0.509,3.777c0.002,0.084 0.091,0.121 0.177,0.117" style="fill:#ec323e;fill-rule:nonzero;"/><path d="M88.817,18.328c-0.019,-0.048 -0.036,-0.095 -0.061,-0.141c-0.036,-0.068 -0.102,-0.118 -0.162,-0.169c-0.081,-0.068 -0.162,-0.137 -0.243,-0.205c-0.161,-0.136 -0.323,-0.273 -0.484,-0.409c-0.159,-0.134 -0.319,-0.264 -0.484,-0.39c-0.185,-0.141 -0.361,-0.288 -0.568,-0.398c-0.178,-0.094 -0.485,0.045 -0.36,0.247c0.1,0.162 0.25,0.297 0.383,0.437c0.151,0.161 0.307,0.315 0.467,0.468c0.147,0.14 0.294,0.28 0.441,0.42c0.071,0.068 0.142,0.136 0.213,0.204c0.038,0.035 0.073,0.076 0.116,0.107c0.065,0.047 0.144,0.073 0.22,0.103c0.127,0.048 0.267,0.055 0.39,-0.01c0.096,-0.051 0.174,-0.157 0.132,-0.264" style="fill:#ec323e;fill-rule:nonzero;"/><path d="M80.975,11.119c-0.324,-0.328 -0.63,-0.671 -0.917,-1.026c-0.298,-0.371 -0.587,-0.746 -0.973,-1.044c-0.142,-0.11 -0.417,-0.042 -0.385,0.15c0.074,0.442 0.344,0.827 0.624,1.183c0.28,0.357 0.582,0.702 0.901,1.032c0.141,0.147 0.382,0.218 0.584,0.128c0.155,-0.068 0.318,-0.27 0.166,-0.423" style="fill:#ec323e;fill-rule:nonzero;"/><path d="M80.795,15.943c-0.089,0.104 -0.181,0.207 -0.274,0.308c-0.091,0.098 -0.195,0.181 -0.292,0.275c-0.198,0.187 -0.411,0.361 -0.613,0.545c-0.186,0.17 -0.387,0.324 -0.582,0.484c-0.106,0.086 -0.202,0.181 -0.305,0.269c-0.109,0.092 -0.217,0.172 -0.296,0.287c-0.141,0.204 0.161,0.317 0.337,0.26c0.268,-0.086 0.527,-0.276 0.74,-0.449c0.221,-0.181 0.422,-0.39 0.616,-0.597c0.181,-0.192 0.331,-0.411 0.475,-0.629c0.074,-0.11 0.13,-0.226 0.2,-0.339c0.071,-0.112 0.14,-0.227 0.205,-0.343c0.057,-0.1 -0.153,-0.139 -0.211,-0.071" style="fill:#ec323e;fill-rule:nonzero;"/><path d="M88.12,9.412c-0.208,0.134 -0.364,0.322 -0.532,0.495c-0.17,0.175 -0.34,0.351 -0.51,0.527c-0.166,0.17 -0.322,0.341 -0.473,0.522c-0.153,0.181 -0.326,0.355 -0.426,0.567c-0.087,0.184 0.239,0.237 0.354,0.162c0.209,-0.134 0.37,-0.32 0.542,-0.492c0.173,-0.173 0.338,-0.349 0.497,-0.533c0.152,-0.176 0.306,-0.352 0.458,-0.528c0.156,-0.18 0.334,-0.35 0.435,-0.563c0.084,-0.179 -0.232,-0.229 -0.345,-0.157" style="fill:#ec323e;fill-rule:nonzero;"/></g></svg>